<svg width="29" height="29" viewBox="0 0 29 29" fill="none" xmlns="http://www.w3.org/2000/svg">
<g clip-path="url(#clip0_488_2905)">
<path d="M14.7502 0.891602C14.5181 0.891602 14.2956 0.983788 14.1315 1.14788C13.9674 1.31198 13.8752 1.53454 13.8752 1.7666V4.02935L12.7447 2.8971C12.5804 2.73303 12.3576 2.64095 12.1254 2.64111C11.8932 2.64128 11.6706 2.73368 11.5066 2.89798C11.3425 3.06228 11.2504 3.28503 11.2506 3.51722C11.2507 3.74941 11.3431 3.97203 11.5074 4.1361L13.8752 6.50385V13.3761L7.92518 9.94085L7.05718 6.70335C6.99685 6.47918 6.84993 6.28815 6.64875 6.1723C6.44757 6.05645 6.20861 6.02526 5.98443 6.0856C5.76026 6.14594 5.56923 6.29286 5.45338 6.49404C5.33753 6.69522 5.30635 6.93418 5.36668 7.15835L5.78143 8.70185L3.82143 7.57135C3.62057 7.45715 3.38269 7.42703 3.1597 7.48757C2.93671 7.54811 2.74672 7.69439 2.63119 7.89449C2.51566 8.09459 2.48397 8.33227 2.54302 8.55566C2.60208 8.77904 2.7471 8.96999 2.94643 9.08685L4.90643 10.2174L3.35943 10.6321C3.24843 10.662 3.1444 10.7134 3.05329 10.7835C2.96217 10.8536 2.88575 10.9409 2.82838 11.0405C2.77102 11.1402 2.73384 11.2501 2.71896 11.3641C2.70409 11.4781 2.71181 11.5939 2.74168 11.7049C2.77156 11.8159 2.823 11.9199 2.89308 12.011C2.96316 12.1021 3.0505 12.1785 3.15012 12.2359C3.24973 12.2933 3.35967 12.3304 3.47365 12.3453C3.58764 12.3602 3.70343 12.3525 3.81443 12.3226L7.04843 11.4564L13.0002 14.8916L7.05018 18.3269L3.81268 17.4606C3.58997 17.4051 3.35436 17.4393 3.15664 17.5559C2.95893 17.6725 2.81494 17.8621 2.75571 18.0838C2.69648 18.3056 2.72676 18.5418 2.84002 18.7414C2.95328 18.941 3.14045 19.0882 3.36118 19.1511L4.90643 19.5659L2.94643 20.6964C2.84612 20.7534 2.75808 20.8297 2.68737 20.9209C2.61667 21.0121 2.56471 21.1164 2.53447 21.2277C2.50424 21.3391 2.49633 21.4554 2.51121 21.5698C2.52608 21.6842 2.56344 21.7946 2.62114 21.8945C2.67884 21.9944 2.75573 22.082 2.8474 22.1521C2.93907 22.2222 3.04369 22.2734 3.15525 22.3029C3.26682 22.3324 3.38311 22.3396 3.49744 22.3239C3.61177 22.3083 3.72188 22.2702 3.82143 22.2119L5.78143 21.0814L5.36668 22.6266C5.33484 22.7383 5.32555 22.8552 5.33936 22.9705C5.35317 23.0858 5.38979 23.1972 5.4471 23.2983C5.50441 23.3993 5.58125 23.4879 5.67315 23.5589C5.76505 23.6299 5.87017 23.6819 5.98237 23.7119C6.09458 23.7418 6.21163 23.7492 6.3267 23.7334C6.44176 23.7177 6.55255 23.6792 6.65259 23.6202C6.75263 23.5612 6.83993 23.4829 6.90939 23.3898C6.97886 23.2968 7.0291 23.1908 7.05718 23.0781L7.92343 19.8424L13.8752 16.4071V23.2794L11.5074 25.6471C11.4261 25.7283 11.3615 25.8248 11.3174 25.931C11.2734 26.0372 11.2507 26.151 11.2506 26.266C11.2505 26.381 11.2731 26.4948 11.317 26.6011C11.3609 26.7073 11.4253 26.8039 11.5066 26.8852C11.5878 26.9666 11.6843 27.0311 11.7905 27.0752C11.8966 27.1193 12.0105 27.142 12.1254 27.1421C12.2404 27.1422 12.3543 27.1196 12.4605 27.0757C12.5668 27.0318 12.6633 26.9673 12.7447 26.8861L13.8752 25.7539V28.0166C13.8752 28.2487 13.9674 28.4712 14.1315 28.6353C14.2956 28.7994 14.5181 28.8916 14.7502 28.8916C14.9822 28.8916 15.2048 28.7994 15.3689 28.6353C15.533 28.4712 15.6252 28.2487 15.6252 28.0166V25.7539L16.7574 26.8861C16.9217 27.0502 17.1445 27.1423 17.3767 27.1421C17.6089 27.1419 17.8315 27.0495 17.9956 26.8852C18.1596 26.7209 18.2517 26.4982 18.2515 26.266C18.2514 26.0338 18.159 25.8112 17.9947 25.6471L15.6252 23.2794V16.4071L21.5752 19.8424L22.4432 23.0799C22.5035 23.304 22.6504 23.495 22.8516 23.6109C23.0528 23.7268 23.2918 23.7579 23.5159 23.6976C23.7401 23.6373 23.9311 23.4903 24.047 23.2892C24.1628 23.088 24.194 22.849 24.1337 22.6249L23.7207 21.0814L25.6807 22.2119C25.8815 22.3261 26.1194 22.3562 26.3424 22.2956C26.5654 22.2351 26.7554 22.0888 26.8709 21.8887C26.9865 21.6886 27.0181 21.4509 26.9591 21.2275C26.9 21.0042 26.755 20.8132 26.5557 20.6964L24.5957 19.5659L26.1409 19.1511C26.3651 19.0908 26.5561 18.9438 26.672 18.7427C26.7878 18.5415 26.819 18.3025 26.7587 18.0784C26.6983 17.8542 26.5514 17.6632 26.3502 17.5473C26.1491 17.4315 25.9101 17.4003 25.6859 17.4606L22.4519 18.3269L16.5002 14.8916L22.4502 11.4564L25.6859 12.3226C25.9101 12.3827 26.149 12.3513 26.35 12.2353C26.551 12.1193 26.6977 11.9282 26.7578 11.704C26.8179 11.4798 26.7865 11.2409 26.6705 11.0399C26.5545 10.8389 26.3634 10.6922 26.1392 10.6321L24.5939 10.2174L26.5539 9.08685C26.7533 8.96999 26.8983 8.77904 26.9573 8.55566C27.0164 8.33227 26.9847 8.09459 26.8692 7.89449C26.7536 7.69439 26.5636 7.54811 26.3407 7.48757C26.1177 7.42703 25.8798 7.45715 25.6789 7.57135L23.7189 8.70185L24.1319 7.1566C24.1638 7.04491 24.1731 6.928 24.1593 6.81269C24.1454 6.69737 24.1088 6.58596 24.0515 6.48494C23.9942 6.38393 23.9174 6.29533 23.8255 6.22432C23.7336 6.15331 23.6284 6.10131 23.5162 6.07134C23.404 6.04137 23.287 6.03404 23.1719 6.04977C23.0568 6.06551 22.9461 6.10399 22.846 6.16298C22.746 6.22197 22.6587 6.30029 22.5892 6.39336C22.5198 6.48644 22.4695 6.59241 22.4414 6.7051L21.5752 9.94085L15.6252 13.3761V6.50385L17.9929 4.1361C18.1572 3.97203 18.2496 3.74941 18.2498 3.51722C18.25 3.28503 18.1579 3.06228 17.9938 2.89798C17.8297 2.73368 17.6071 2.64128 17.3749 2.64111C17.1427 2.64095 16.92 2.73303 16.7557 2.8971L15.6234 4.02935V1.7666C15.6234 1.53454 15.5312 1.31198 15.3671 1.14788C15.2031 0.983788 14.9822 0.891602 14.7502 0.891602Z" fill="#54575E"/>
</g>
<defs>
<clipPath id="clip0_488_2905">
<rect width="28" height="28" fill="white" transform="matrix(1 0 0 -1 0.75 28.8916)"/>
</clipPath>
</defs>
</svg>
