<svg width="29" height="29" viewBox="0 0 29 29" fill="none" xmlns="http://www.w3.org/2000/svg">
<path d="M15.375 14.8916C15.8582 14.8916 16.25 15.2834 16.25 15.7666C16.25 16.2499 15.8582 16.6416 15.375 16.6416C14.8918 16.6416 14.5 16.2499 14.5 15.7666C14.5 15.2834 14.8918 14.8916 15.375 14.8916Z" stroke="#54575E" stroke-width="2.5" stroke-linecap="round" stroke-linejoin="round"/>
<path d="M14.5 9.6416C17.3995 9.6416 19.75 11.9921 19.75 14.8916C19.75 17.7911 17.3995 20.1416 14.5 20.1416C11.6005 20.1416 9.25 17.7911 9.25 14.8916C9.25 11.9921 11.6005 9.6416 14.5 9.6416Z" stroke="#54575E" stroke-width="2.5" stroke-linecap="round" stroke-linejoin="round"/>
<path d="M2.25 14.8916C2.25 14.8916 6.625 23.6416 14.5 23.6416C22.375 23.6416 26.75 14.8916 26.75 14.8916C26.75 14.8916 22.375 6.1416 14.5 6.1416C6.625 6.1416 2.25 14.8916 2.25 14.8916Z" stroke="#54575E" stroke-width="2.5" stroke-linecap="round" stroke-linejoin="round"/>
</svg>
