<svg width="58" height="18" viewBox="0 0 58 18" fill="none" xmlns="http://www.w3.org/2000/svg">
<path d="M54.0993 1.13428H50.4531C49.3508 1.13428 48.5029 1.45809 47.9941 2.51047L41.041 17.6486H45.9591C45.9591 17.6486 46.807 15.6248 46.9766 15.139C47.4854 15.139 52.3186 15.139 52.997 15.139C53.1666 15.7057 53.5905 17.5676 53.5905 17.5676H57.9998L54.0993 1.13428ZM48.3333 11.739C48.7573 10.7676 50.1988 7.12475 50.1988 7.12475C50.1988 7.20571 50.6227 6.15333 50.7923 5.58666L51.1315 7.0438C51.1315 7.0438 52.0642 11.0105 52.2338 11.82H48.3333V11.739Z" fill="#FAFAFA"/>
<path d="M41.3802 12.2249C41.3802 15.6249 38.158 17.8916 33.1552 17.8916C31.0353 17.8916 29.0003 17.4868 27.8979 17.0011L28.5763 13.2773L29.1699 13.5202C30.6962 14.1678 31.7137 14.4106 33.5791 14.4106C34.9359 14.4106 36.3774 13.9249 36.3774 12.7916C36.3774 12.063 35.7838 11.5773 33.9183 10.7678C32.1377 9.95827 29.7634 8.66303 29.7634 6.31541C29.7634 3.07732 33.0704 0.891602 37.7341 0.891602C39.5147 0.891602 41.041 1.21541 41.9738 1.62017L41.2954 5.18208L40.9562 4.85827C40.1083 4.53446 39.006 4.21065 37.3949 4.21065C35.6142 4.2916 34.7663 5.02017 34.7663 5.66779C34.7663 6.39636 35.7838 6.96303 37.3949 7.6916C40.1083 8.90589 41.3802 10.2821 41.3802 12.2249Z" fill="#FAFAFA"/>
<path d="M0 1.29647L0.084794 0.972656H7.37708C8.39461 0.972656 9.15776 1.29647 9.41214 2.34885L11.0232 9.63456C9.41214 5.74885 5.6812 2.5917 0 1.29647Z" fill="#FAFAFA" fill-opacity="0.7"/>
<path d="M21.2837 1.13466L13.9066 17.568H8.90376L4.66406 3.80609C7.71665 5.668 10.2605 8.58228 11.1932 10.6061L11.702 12.3061L16.2808 1.05371H21.2837V1.13466Z" fill="#FAFAFA"/>
<path d="M23.2339 1.05371H27.8976L24.9298 17.568H20.2661L23.2339 1.05371Z" fill="#FAFAFA"/>
</svg>
