<svg width="28" height="29" viewBox="0 0 28 29" fill="none" xmlns="http://www.w3.org/2000/svg">
<g clip-path="url(#clip0_493_3400)">
<path d="M3.7627 11.6541C4.1127 12.0916 4.3752 12.6166 4.55019 13.1416C4.72519 13.6666 4.8127 14.2791 4.8127 14.8916C4.8127 15.5041 4.72519 16.1166 4.55019 16.6416C4.3752 17.1666 4.1127 17.6916 3.7627 18.1291C3.3252 18.7416 3.4127 19.6166 4.0252 20.0541C4.6377 20.4916 5.5127 20.4041 5.9502 19.7916C6.4752 19.0916 6.82519 18.3916 7.17519 17.5166C7.52519 16.6416 7.61269 15.7666 7.61269 14.8916C7.61269 14.0166 7.43769 13.1416 7.17519 12.2666C6.91269 11.4791 6.4752 10.6916 5.9502 9.9916C5.5127 9.3791 4.6377 9.2916 4.0252 9.7291C3.4127 10.1666 3.3252 11.0416 3.7627 11.6541Z" fill="#FAFAFA"/>
<path d="M8.57519 9.1166C9.62519 10.7791 10.2377 12.7916 10.2377 14.8916C10.2377 16.9916 9.62519 19.0041 8.57519 20.6666C8.13769 21.2791 8.40019 22.1541 9.01269 22.5916C9.71269 23.0291 10.5002 22.7666 10.9377 22.1541C12.2502 20.0541 13.0377 17.6041 13.0377 14.8916C13.0377 12.2666 12.2502 9.7291 10.9377 7.6291C10.5002 7.0166 9.62519 6.7541 9.01269 7.1916C8.40019 7.6291 8.13769 8.4166 8.57519 9.1166Z" fill="#FAFAFA"/>
<path d="M13.6502 6.4916C15.1377 8.9416 15.9252 11.8291 15.9252 14.8916C15.9252 17.9541 15.0502 20.8416 13.6502 23.2916C13.3002 23.9916 13.4752 24.7791 14.1752 25.2166C14.8752 25.5666 15.6627 25.3916 16.1002 24.6916C17.8502 21.8041 18.8127 18.4791 18.8127 14.8916C18.8127 11.3041 17.8502 7.9791 16.1002 5.0916C15.7502 4.3916 14.8752 4.2166 14.1752 4.5666C13.4752 5.0041 13.3002 5.7916 13.6502 6.4916Z" fill="#FAFAFA"/>
<path d="M18.7252 3.8666C20.5627 7.1041 21.7002 10.8666 21.7002 14.8916C21.7002 18.9166 20.6502 22.6791 18.7252 25.9166C18.3752 26.6166 18.5502 27.4041 19.2502 27.8416C19.9502 28.1916 20.7377 28.0166 21.1752 27.3166C23.2752 23.6416 24.5002 19.4416 24.5002 14.8916C24.5002 10.3416 23.2752 6.1416 21.1752 2.4666C20.8252 1.7666 19.9502 1.5916 19.2502 1.9416C18.5502 2.2916 18.3752 3.1666 18.7252 3.8666Z" fill="#FAFAFA"/>
</g>
<defs>
<clipPath id="clip0_493_3400">
<rect width="28" height="28" fill="white" transform="translate(0 0.891602)"/>
</clipPath>
</defs>
</svg>
