<svg width="38" height="39" viewBox="0 0 38 39" fill="none" xmlns="http://www.w3.org/2000/svg">
<path d="M25.3333 4.05859H12.6667C11.8268 4.05859 11.0214 4.39222 10.4275 4.98609C9.83363 5.57995 9.5 6.38541 9.5 7.22526V32.5586C9.5 33.3984 9.83363 34.2039 10.4275 34.7978C11.0214 35.3916 11.8268 35.7253 12.6667 35.7253H25.3333C26.1732 35.7253 26.9786 35.3916 27.5725 34.7978C28.1664 34.2039 28.5 33.3984 28.5 32.5586V7.22526C28.5 6.38541 28.1664 5.57995 27.5725 4.98609C26.9786 4.39222 26.1732 4.05859 25.3333 4.05859ZM20.5833 34.1419H17.4167V32.5586H20.5833V34.1419ZM25.3333 30.9753H12.6667V8.80859H25.3333V30.9753Z" fill="#2C42C2"/>
</svg>
