<svg width="40" height="41" viewBox="0 0 40 41" fill="none" xmlns="http://www.w3.org/2000/svg">
<path d="M34.5281 22.1584C34.9963 21.6897 35.2593 21.0542 35.2593 20.3917C35.2593 19.7292 34.9963 19.0938 34.5281 18.6251L25.1015 9.19341C24.6325 8.72441 23.9964 8.46094 23.3331 8.46094C22.6699 8.46094 22.0338 8.72441 21.5648 9.19341C21.0958 9.6624 20.8323 10.2985 20.8323 10.9617C20.8323 11.625 21.0958 12.2611 21.5648 12.7301L26.7248 17.8917H7.49981C6.83677 17.8917 6.20088 18.1551 5.73204 18.624C5.2632 19.0928 4.99981 19.7287 4.99981 20.3917C4.99981 21.0548 5.2632 21.6907 5.73204 22.1595C6.20088 22.6283 6.83677 22.8917 7.49981 22.8917H26.7248L21.5648 28.0517C21.3326 28.284 21.1484 28.5596 21.0227 28.8631C20.897 29.1665 20.8323 29.4917 20.8323 29.8201C20.8323 30.1485 20.897 30.4737 21.0227 30.7771C21.1484 31.0805 21.3326 31.3562 21.5648 31.5884C21.797 31.8206 22.0727 32.0048 22.3761 32.1305C22.6795 32.2562 23.0047 32.3209 23.3331 32.3209C23.6616 32.3209 23.9867 32.2562 24.2902 32.1305C24.5936 32.0048 24.8693 31.8206 25.1015 31.5884L34.5281 22.1584Z" fill="#4318FF"/>
</svg>
