<svg width="20" height="21" viewBox="0 0 20 21" fill="none" xmlns="http://www.w3.org/2000/svg">
<path fill-rule="evenodd" clip-rule="evenodd" d="M1.81278 0.270508C1.60278 0.270508 1.41556 0.416063 1.34333 0.634951L0.0611112 4.52994C0.0206254 4.65311 -2.95934e-06 4.78195 3.18432e-10 4.9116V6.46104C3.18432e-10 7.33715 0.639445 8.04826 1.42833 8.04826C2.21722 8.04826 2.85722 7.33715 2.85722 6.46104C2.85722 7.33771 3.49667 8.04826 4.28556 8.04826C5.07444 8.04826 5.71444 7.33715 5.71444 6.46104C5.71444 7.33771 6.35389 8.04826 7.14278 8.04826C7.93167 8.04826 8.57056 7.33826 8.57167 6.46215C8.57167 7.33826 9.21111 8.04826 10 8.04826C10.7889 8.04826 11.4283 7.33715 11.4283 6.46104C11.4283 7.33771 12.0683 8.04826 12.8572 8.04826C13.6461 8.04826 14.285 7.33826 14.2856 6.46215C14.2861 7.33826 14.9256 8.04826 15.7144 8.04826C16.5033 8.04826 17.1428 7.33715 17.1428 6.46104C17.1428 7.33771 17.7822 8.04826 18.5717 8.04826C19.3606 8.04826 20 7.33715 20 6.46104V4.9116C20 4.78195 19.9794 4.65311 19.9389 4.52994L18.6567 0.635507C18.5844 0.416063 18.3972 0.270508 18.1872 0.270508H1.81278Z" fill="#231F20"/>
<path fill-rule="evenodd" clip-rule="evenodd" d="M2.22233 8.73205V13.0487H0.833442C0.759771 13.0487 0.689117 13.078 0.637023 13.1301C0.58493 13.1822 0.555664 13.2528 0.555664 13.3265V13.882C0.555664 13.9557 0.58493 14.0264 0.637023 14.0784C0.689117 14.1305 0.759771 14.1598 0.833442 14.1598H19.1668C19.2404 14.1598 19.3111 14.1305 19.3632 14.0784C19.4153 14.0264 19.4446 13.9557 19.4446 13.882V13.3265C19.4446 13.2528 19.4153 13.1822 19.3632 13.1301C19.3111 13.078 19.2404 13.0487 19.1668 13.0487H17.7779V8.73205C17.5453 8.63937 17.3305 8.50725 17.1429 8.34149C16.9989 8.46852 16.8388 8.5761 16.6668 8.66149V13.0487H3.33344V8.66149C3.16143 8.5761 3.00136 8.46852 2.85733 8.34149C2.67066 8.50538 2.45733 8.63872 2.22233 8.73205ZM16.6668 7.64483C16.714 7.59761 16.7584 7.54705 16.8001 7.49316H16.6668V7.64483ZM17.4857 7.49316C17.5697 7.60198 17.668 7.69897 17.7779 7.7815V7.49316H17.4857ZM2.22233 7.7815C2.33282 7.69962 2.4312 7.60255 2.51455 7.49316H2.22233V7.7815ZM3.20011 7.49316H3.33344V7.64483C3.28572 7.59725 3.24118 7.54659 3.20011 7.49316ZM1.389 15.2709C1.31533 15.2709 1.24467 15.3002 1.19258 15.3523C1.14049 15.4044 1.11122 15.475 1.11122 15.5487V19.7153C1.11122 19.8627 1.16975 20.004 1.27394 20.1082C1.37813 20.2124 1.51943 20.2709 1.66678 20.2709H18.3334C18.4808 20.2709 18.6221 20.2124 18.7263 20.1082C18.8305 20.004 18.889 19.8627 18.889 19.7153V15.5487C18.889 15.475 18.8597 15.4044 18.8076 15.3523C18.7555 15.3002 18.6849 15.2709 18.6112 15.2709H1.389Z" fill="#231F20"/>
<path d="M4.44434 11.6596C4.44434 11.5859 4.4736 11.5153 4.52569 11.4632C4.57779 11.4111 4.64844 11.3818 4.72211 11.3818H6.38878C6.46245 11.3818 6.53311 11.4111 6.5852 11.4632C6.63729 11.5153 6.66656 11.5859 6.66656 11.6596V12.7707C6.66656 12.8444 6.63729 12.915 6.5852 12.9671C6.53311 13.0192 6.46245 13.0485 6.38878 13.0485H4.72211C4.64844 13.0485 4.57779 13.0192 4.52569 12.9671C4.4736 12.915 4.44434 12.8444 4.44434 12.7707V11.6596Z" fill="#231F20"/>
<path d="M5.55469 12.2152C5.55469 12.1415 5.58395 12.0708 5.63605 12.0187C5.68814 11.9667 5.75879 11.9374 5.83247 11.9374H7.49913C7.5728 11.9374 7.64346 11.9667 7.69555 12.0187C7.74764 12.0708 7.77691 12.1415 7.77691 12.2152V12.7707C7.77691 12.8444 7.74764 12.915 7.69555 12.9671C7.64346 13.0192 7.5728 13.0485 7.49913 13.0485H5.83247C5.75879 13.0485 5.68814 13.0192 5.63605 12.9671C5.58395 12.915 5.55469 12.8444 5.55469 12.7707V12.2152ZM9.99913 12.2152C9.99913 12.4362 9.91133 12.6481 9.75505 12.8044C9.59877 12.9607 9.38681 13.0485 9.1658 13.0485C8.94479 13.0485 8.73282 12.9607 8.57654 12.8044C8.42026 12.6481 8.33247 12.4362 8.33247 12.2152C8.33247 11.9942 8.42026 11.7822 8.57654 11.6259C8.73282 11.4696 8.94479 11.3818 9.1658 11.3818C9.38681 11.3818 9.59877 11.4696 9.75505 11.6259C9.91133 11.7822 9.99913 11.9942 9.99913 12.2152Z" fill="#231F20"/>
</svg>
