<svg width="40" height="41" viewBox="0 0 40 41" fill="none" xmlns="http://www.w3.org/2000/svg">
<path d="M5.47186 18.6248C5.00369 19.0935 4.74072 19.729 4.74072 20.3915C4.74072 21.054 5.00369 21.6894 5.47186 22.1581L14.8985 31.5898C15.3675 32.0588 16.0036 32.3223 16.6669 32.3223C17.3301 32.3223 17.9662 32.0588 18.4352 31.5898C18.9042 31.1208 19.1677 30.4847 19.1677 29.8215C19.1677 29.1582 18.9042 28.5221 18.4352 28.0531L13.2752 22.8915H32.5002C33.1632 22.8915 33.7991 22.6281 34.268 22.1592C34.7368 21.6904 35.0002 21.0545 35.0002 20.3915C35.0002 19.7284 34.7368 19.0925 34.268 18.6237C33.7991 18.1549 33.1632 17.8915 32.5002 17.8915H13.2752L18.4352 12.7315C18.6674 12.4992 18.8516 12.2236 18.9773 11.9201C19.103 11.6167 19.1677 11.2915 19.1677 10.9631C19.1677 10.6347 19.103 10.3095 18.9773 10.0061C18.8516 9.7027 18.6674 9.42702 18.4352 9.19479C18.203 8.96257 17.9273 8.77837 17.6239 8.65269C17.3205 8.52701 16.9953 8.46233 16.6669 8.46233C16.3384 8.46233 16.0133 8.52701 15.7098 8.65269C15.4064 8.77837 15.1307 8.96257 14.8985 9.19479L5.47186 18.6248Z" fill="#4318FF"/>
</svg>
