<svg width="15" height="16" viewBox="0 0 15 16" fill="none" xmlns="http://www.w3.org/2000/svg">
<g clip-path="url(#clip0_410_1367)">
<path d="M7.5 8.11133C8.88125 8.11133 10 6.99258 10 5.61133C10 4.23008 8.88125 3.11133 7.5 3.11133C6.11875 3.11133 5 4.23008 5 5.61133C5 6.99258 6.11875 8.11133 7.5 8.11133ZM7.5 9.36133C5.83125 9.36133 2.5 10.1988 2.5 11.8613V12.4863C2.5 12.8301 2.78125 13.1113 3.125 13.1113H11.875C12.2188 13.1113 12.5 12.8301 12.5 12.4863V11.8613C12.5 10.1988 9.16875 9.36133 7.5 9.36133Z" fill="#54575E"/>
</g>
<defs>
<clipPath id="clip0_410_1367">
<rect width="15" height="15" fill="white" transform="translate(0 0.611328)"/>
</clipPath>
</defs>
</svg>
