<svg width="18" height="18" viewBox="0 0 18 18" fill="none" xmlns="http://www.w3.org/2000/svg">
<g clip-path="url(#clip0_493_3603)">
<path d="M7.63591 3.2251C6.88446 3.2251 6.16379 3.52361 5.63244 4.05496C5.10108 4.58631 4.80257 5.30698 4.80257 6.05843C4.80257 6.80988 5.10108 7.53055 5.63244 8.0619C6.16379 8.59325 6.88446 8.89176 7.63591 8.89176C8.38735 8.89176 9.10802 8.59325 9.63937 8.0619C10.1707 7.53055 10.4692 6.80988 10.4692 6.05843C10.4692 5.30698 10.1707 4.58631 9.63937 4.05496C9.10802 3.52361 8.38735 3.2251 7.63591 3.2251ZM12.5942 8.89176C12.551 8.89096 12.5088 8.90543 12.4751 8.93263C12.4414 8.95983 12.4184 8.99803 12.4101 9.04051L12.2755 9.97551C12.063 10.0676 11.8576 10.1809 11.6734 10.3084L10.7951 9.95426C10.7172 9.95426 10.6251 9.95426 10.5755 10.0463L9.86716 11.2718C9.82466 11.3497 9.83882 11.4418 9.90966 11.4984L10.6605 12.0793C10.6322 12.3145 10.6322 12.5523 10.6605 12.7876L9.90966 13.3684C9.87782 13.3957 9.85626 13.4331 9.84854 13.4743C9.84081 13.5155 9.84738 13.5581 9.86716 13.5951L10.5755 14.8205C10.618 14.9126 10.7101 14.9126 10.7951 14.9126L11.6734 14.5584C11.8576 14.6859 12.0559 14.8063 12.2755 14.8913L12.4101 15.8263C12.4242 15.9113 12.4951 15.9751 12.5942 15.9751H14.0109C14.0888 15.9751 14.1667 15.9113 14.1809 15.8263L14.3155 14.8913C14.528 14.7993 14.7192 14.6859 14.9105 14.5584L15.7817 14.9126C15.8738 14.9126 15.9659 14.9126 16.0155 14.8205L16.7238 13.5951C16.7436 13.5581 16.7502 13.5155 16.7424 13.4743C16.7347 13.4331 16.7132 13.3957 16.6813 13.3684L15.9234 12.7876C15.9376 12.6672 15.9517 12.5538 15.9517 12.4334C15.9517 12.313 15.9447 12.1997 15.9234 12.0793L16.6742 11.4984C16.7061 11.4711 16.7276 11.4338 16.7354 11.3926C16.7431 11.3514 16.7365 11.3087 16.7167 11.2718L16.0084 10.0463C15.9659 9.95426 15.8738 9.95426 15.7817 9.95426L14.9105 10.3084C14.7192 10.1809 14.528 10.0605 14.3084 9.97551L14.1738 9.04051C14.1694 9.00017 14.1504 8.96282 14.1204 8.93545C14.0904 8.90808 14.0515 8.89255 14.0109 8.89176H12.5942ZM7.63591 10.3084C4.50507 10.3084 1.96924 11.5763 1.96924 13.1418V14.5584H8.82591C8.50977 13.8946 8.34525 13.1687 8.34424 12.4334C8.34568 11.7218 8.50029 11.0188 8.79757 10.3722C8.42216 10.3297 8.03257 10.3084 7.63591 10.3084ZM13.3026 11.3709C13.8905 11.3709 14.3651 11.8455 14.3651 12.4334C14.3651 13.0213 13.8905 13.4959 13.3026 13.4959C12.7076 13.4959 12.2401 13.0213 12.2401 12.4334C12.2401 11.8455 12.7147 11.3709 13.3026 11.3709Z" fill="#54575E"/>
</g>
<defs>
<clipPath id="clip0_493_3603">
<rect width="17" height="17" fill="white" transform="translate(0.552734 0.391602)"/>
</clipPath>
</defs>
</svg>
