<svg width="15" height="16" viewBox="0 0 15 16" fill="none" xmlns="http://www.w3.org/2000/svg">
<g clip-path="url(#clip0_493_3581)">
<g clip-path="url(#clip1_493_3581)">
<path fill-rule="evenodd" clip-rule="evenodd" d="M7.5 1.46094C7.32083 1.46091 7.14376 1.49941 6.98077 1.5738C6.81778 1.6482 6.67269 1.75677 6.55533 1.89215C6.43797 2.02753 6.35109 2.18655 6.30056 2.35845C6.25004 2.53034 6.23706 2.71109 6.2625 2.88844C5.35664 3.15589 4.5616 3.7092 3.99612 4.46573C3.43064 5.22226 3.12505 6.14142 3.125 7.08594V12.0859H2.5C2.33424 12.0859 2.17527 12.1518 2.05806 12.269C1.94085 12.3862 1.875 12.5452 1.875 12.7109C1.875 12.8767 1.94085 13.0357 2.05806 13.1529C2.17527 13.2701 2.33424 13.3359 2.5 13.3359H12.5C12.6658 13.3359 12.8247 13.2701 12.9419 13.1529C13.0592 13.0357 13.125 12.8767 13.125 12.7109C13.125 12.5452 13.0592 12.3862 12.9419 12.269C12.8247 12.1518 12.6658 12.0859 12.5 12.0859H11.875V7.08594C11.8749 6.14142 11.5694 5.22226 11.0039 4.46573C10.4384 3.7092 9.64336 3.15589 8.7375 2.88844C8.76294 2.71109 8.74996 2.53034 8.69944 2.35845C8.64891 2.18655 8.56203 2.02753 8.44467 1.89215C8.32731 1.75677 8.18222 1.6482 8.01923 1.5738C7.85624 1.49941 7.67917 1.46091 7.5 1.46094ZM8.75 14.5859C8.75 14.7517 8.68415 14.9107 8.56694 15.0279C8.44973 15.1451 8.29076 15.2109 8.125 15.2109H6.875C6.70924 15.2109 6.55027 15.1451 6.43306 15.0279C6.31585 14.9107 6.25 14.7517 6.25 14.5859C6.25 14.4202 6.31585 14.2612 6.43306 14.144C6.55027 14.0268 6.70924 13.9609 6.875 13.9609H8.125C8.29076 13.9609 8.44973 14.0268 8.56694 14.144C8.68415 14.2612 8.75 14.4202 8.75 14.5859Z" fill="#54575E"/>
</g>
</g>
<defs>
<clipPath id="clip0_493_3581">
<rect width="15" height="15" fill="white" transform="translate(0 0.835938)"/>
</clipPath>
<clipPath id="clip1_493_3581">
<rect width="15" height="15" fill="white" transform="translate(0 0.835938)"/>
</clipPath>
</defs>
</svg>
