<svg width="15" height="16" viewBox="0 0 15 16" fill="none" xmlns="http://www.w3.org/2000/svg">
<g clip-path="url(#clip0_500_44)">
<path fill-rule="evenodd" clip-rule="evenodd" d="M6.25 3.43359H8.75C11.1069 3.43359 12.2856 3.43359 13.0175 4.16609C13.545 4.69297 13.6925 5.45172 13.7338 6.71484H1.26625C1.3075 5.45172 1.455 4.69297 1.9825 4.16609C2.71438 3.43359 3.89313 3.43359 6.25 3.43359ZM8.75 13.4336H6.25C3.89313 13.4336 2.71438 13.4336 1.9825 12.7011C1.25 11.9692 1.25 10.7905 1.25 8.43359C1.25 8.15734 1.25 7.89734 1.25125 7.65234H13.7487C13.75 7.89734 13.75 8.15734 13.75 8.43359C13.75 10.7905 13.75 11.9692 13.0175 12.7011C12.2856 13.4336 11.1069 13.4336 8.75 13.4336ZM3.75 10.4648C3.62568 10.4648 3.50645 10.5142 3.41854 10.6021C3.33064 10.69 3.28125 10.8093 3.28125 10.9336C3.28125 11.0579 3.33064 11.1771 3.41854 11.2651C3.50645 11.353 3.62568 11.4023 3.75 11.4023H6.25C6.37432 11.4023 6.49355 11.353 6.58146 11.2651C6.66936 11.1771 6.71875 11.0579 6.71875 10.9336C6.71875 10.8093 6.66936 10.69 6.58146 10.6021C6.49355 10.5142 6.37432 10.4648 6.25 10.4648H3.75ZM7.8125 10.4648C7.68818 10.4648 7.56895 10.5142 7.48104 10.6021C7.39314 10.69 7.34375 10.8093 7.34375 10.9336C7.34375 11.0579 7.39314 11.1771 7.48104 11.2651C7.56895 11.353 7.68818 11.4023 7.8125 11.4023H8.75C8.87432 11.4023 8.99355 11.353 9.08146 11.2651C9.16936 11.1771 9.21875 11.0579 9.21875 10.9336C9.21875 10.8093 9.16936 10.69 9.08146 10.6021C8.99355 10.5142 8.87432 10.4648 8.75 10.4648H7.8125Z" fill="#54575E"/>
</g>
<defs>
<clipPath id="clip0_500_44">
<rect width="15" height="15" fill="white" transform="translate(0 0.725098)"/>
</clipPath>
</defs>
</svg>
