<svg width="15" height="16" viewBox="0 0 15 16" fill="none" xmlns="http://www.w3.org/2000/svg">
<g clip-path="url(#clip0_410_1385)">
<g clip-path="url(#clip1_410_1385)">
<path fill-rule="evenodd" clip-rule="evenodd" d="M7.5 1.56934C7.32083 1.56931 7.14376 1.6078 6.98077 1.6822C6.81778 1.7566 6.67269 1.86517 6.55533 2.00055C6.43797 2.13592 6.35109 2.29495 6.30056 2.46684C6.25004 2.63874 6.23706 2.81949 6.2625 2.99684C5.35664 3.26429 4.5616 3.8176 3.99612 4.57413C3.43064 5.33066 3.12505 6.24982 3.125 7.19434V12.1943H2.5C2.33424 12.1943 2.17527 12.2602 2.05806 12.3774C1.94085 12.4946 1.875 12.6536 1.875 12.8193C1.875 12.9851 1.94085 13.1441 2.05806 13.2613C2.17527 13.3785 2.33424 13.4443 2.5 13.4443H12.5C12.6658 13.4443 12.8247 13.3785 12.9419 13.2613C13.0592 13.1441 13.125 12.9851 13.125 12.8193C13.125 12.6536 13.0592 12.4946 12.9419 12.3774C12.8247 12.2602 12.6658 12.1943 12.5 12.1943H11.875V7.19434C11.8749 6.24982 11.5694 5.33066 11.0039 4.57413C10.4384 3.8176 9.64336 3.26429 8.7375 2.99684C8.76294 2.81949 8.74996 2.63874 8.69944 2.46684C8.64891 2.29495 8.56203 2.13592 8.44467 2.00055C8.32731 1.86517 8.18222 1.7566 8.01923 1.6822C7.85624 1.6078 7.67917 1.56931 7.5 1.56934ZM8.75 14.6943C8.75 14.8601 8.68415 15.0191 8.56694 15.1363C8.44973 15.2535 8.29076 15.3193 8.125 15.3193H6.875C6.70924 15.3193 6.55027 15.2535 6.43306 15.1363C6.31585 15.0191 6.25 14.8601 6.25 14.6943C6.25 14.5286 6.31585 14.3696 6.43306 14.2524C6.55027 14.1352 6.70924 14.0693 6.875 14.0693H8.125C8.29076 14.0693 8.44973 14.1352 8.56694 14.2524C8.68415 14.3696 8.75 14.5286 8.75 14.6943Z" fill="#54575E"/>
</g>
</g>
<defs>
<clipPath id="clip0_410_1385">
<rect width="15" height="15" fill="white" transform="translate(0 0.944336)"/>
</clipPath>
<clipPath id="clip1_410_1385">
<rect width="15" height="15" fill="white" transform="translate(0 0.944336)"/>
</clipPath>
</defs>
</svg>
