<svg width="15" height="16" viewBox="0 0 15 16" fill="none" xmlns="http://www.w3.org/2000/svg">
<g clip-path="url(#clip0_493_3574)">
<path d="M7.5 6.93311C7.84375 6.93311 8.13813 6.81061 8.38313 6.56561C8.62813 6.32061 8.75042 6.02644 8.75 5.68311C8.75 5.33936 8.6275 5.04498 8.3825 4.79998C8.1375 4.55498 7.84333 4.43269 7.5 4.43311C7.15625 4.43311 6.86188 4.55561 6.61688 4.80061C6.37188 5.04561 6.24958 5.33977 6.25 5.68311C6.25 6.02686 6.3725 6.32123 6.6175 6.56623C6.8625 6.81123 7.15667 6.93352 7.5 6.93311ZM4.375 6.80811V4.43311H3.125V5.05811C3.125 5.45394 3.23958 5.81082 3.46875 6.12873C3.69792 6.44665 4 6.67311 4.375 6.80811ZM10.625 6.80811C11 6.67269 11.3021 6.44602 11.5313 6.12811C11.7604 5.81019 11.875 5.45352 11.875 5.05811V4.43311H10.625V6.80811ZM6.875 11.9331V9.99561C6.36458 9.88102 5.90875 9.66477 5.5075 9.34686C5.10625 9.02894 4.81208 8.63061 4.625 8.15186C3.84375 8.05811 3.19 7.71706 2.66375 7.12873C2.1375 6.5404 1.87458 5.85019 1.875 5.05811V4.43311C1.875 4.08936 1.9975 3.79498 2.2425 3.54998C2.4875 3.30498 2.78167 3.18269 3.125 3.18311H4.375C4.375 2.83936 4.4975 2.54498 4.7425 2.29998C4.9875 2.05498 5.28167 1.93269 5.625 1.93311H9.375C9.71875 1.93311 10.0131 2.05561 10.2581 2.30061C10.5031 2.54561 10.6254 2.83977 10.625 3.18311H11.875C12.2188 3.18311 12.5131 3.30561 12.7581 3.55061C13.0031 3.79561 13.1254 4.08977 13.125 4.43311V5.05811C13.125 5.84977 12.8619 6.53998 12.3356 7.12873C11.8094 7.71748 11.1558 8.05852 10.375 8.15186C10.1875 8.63102 9.89313 9.02956 9.49188 9.34748C9.09063 9.6654 8.635 9.88144 8.125 9.99561V11.9331H10C10.1771 11.9331 10.3256 11.9931 10.4456 12.1131C10.5656 12.2331 10.6254 12.3814 10.625 12.5581C10.625 12.7352 10.565 12.8837 10.445 13.0037C10.325 13.1237 10.1767 13.1835 10 13.1831H5C4.82292 13.1831 4.67438 13.1231 4.55438 13.0031C4.43438 12.8831 4.37458 12.7348 4.375 12.5581C4.375 12.381 4.435 12.2325 4.555 12.1125C4.675 11.9925 4.82333 11.9327 5 11.9331H6.875Z" fill="#54575E"/>
</g>
<defs>
<clipPath id="clip0_493_3574">
<rect width="15" height="15" fill="white" transform="translate(0 0.0581055)"/>
</clipPath>
</defs>
</svg>
