<svg width="15" height="16" viewBox="0 0 15 16" fill="none" xmlns="http://www.w3.org/2000/svg">
<g clip-path="url(#clip0_493_3595)">
<path d="M12.4937 6.51034C12.8125 6.26034 12.8125 5.77284 12.4937 5.52284L8.26874 2.23534C7.81874 1.88534 7.18749 1.88534 6.73124 2.23534L5.88124 2.90409L10.8062 7.82909L12.4937 6.51034ZM12.4937 8.69159L12.4875 8.68535C12.3786 8.6003 12.2444 8.5541 12.1062 8.5541C11.9681 8.5541 11.8339 8.6003 11.725 8.68535L11.6937 8.71035L12.5687 9.58534C12.6252 9.52299 12.6682 9.4497 12.6951 9.37003C12.722 9.29035 12.7323 9.20599 12.7253 9.12219C12.7182 9.03838 12.6941 8.95691 12.6542 8.88284C12.6144 8.80877 12.5598 8.74367 12.4937 8.69159ZM13.4 12.1916L2.57499 1.36659C2.51713 1.30873 2.44844 1.26283 2.37283 1.23152C2.29723 1.2002 2.2162 1.18408 2.13437 1.18408C2.05254 1.18408 1.97151 1.2002 1.8959 1.23152C1.8203 1.26283 1.75161 1.30873 1.69374 1.36659C1.63588 1.42446 1.58998 1.49315 1.55866 1.56876C1.52735 1.64436 1.51123 1.72539 1.51123 1.80722C1.51123 1.88905 1.52735 1.97008 1.55866 2.04568C1.58998 2.12129 1.63588 2.18998 1.69374 2.24784L3.89374 4.44784L2.50624 5.52284C2.18749 5.77284 2.18749 6.26034 2.50624 6.51034L6.73124 9.79784C7.18124 10.1478 7.81249 10.1478 8.26874 9.79784L8.81249 9.37284L9.69999 10.2603L7.87499 11.6791C7.64999 11.8541 7.33124 11.8541 7.10624 11.6791L3.26249 8.69159C3.15361 8.60655 3.01941 8.56035 2.88124 8.56035C2.74308 8.56035 2.60888 8.60655 2.49999 8.69159C2.42555 8.74988 2.36534 8.82435 2.32394 8.90935C2.28254 8.99436 2.26102 9.08767 2.26102 9.18222C2.26102 9.27677 2.28254 9.37008 2.32394 9.45508C2.36534 9.54009 2.42555 9.61456 2.49999 9.67285L6.72499 12.9603C7.17499 13.3103 7.80624 13.3103 8.26249 12.9603L10.5875 11.1541L12.5062 13.0728C12.75 13.3166 13.1437 13.3166 13.3875 13.0728C13.6437 12.8291 13.6437 12.4353 13.4 12.1916Z" fill="#54575E"/>
</g>
<defs>
<clipPath id="clip0_493_3595">
<rect width="15" height="15" fill="white" transform="translate(0 0.391602)"/>
</clipPath>
</defs>
</svg>
