<svg width="18" height="18" viewBox="0 0 18 18" fill="none" xmlns="http://www.w3.org/2000/svg">
<g clip-path="url(#clip0_493_3610)">
<g clip-path="url(#clip1_493_3610)">
<path d="M7.83355 0.391602V10.2228H10.2719V0.391602H7.83355ZM3.04193 2.8808C1.50373 4.419 0.552734 6.54438 0.552734 8.8916C0.552734 13.586 4.35831 17.3916 9.05273 17.3916C13.7472 17.3916 17.5527 13.586 17.5527 8.8916C17.5527 6.54438 16.6017 4.419 15.0635 2.8808L13.3515 4.59284C14.4517 5.693 15.132 7.21299 15.132 8.8916C15.132 12.2488 12.41 14.9709 9.05273 14.9709C5.6955 14.9709 2.97345 12.2488 2.97345 8.8916C2.97345 7.21299 3.6538 5.693 4.75397 4.59284L3.04193 2.8808Z" fill="#54575E"/>
</g>
</g>
<defs>
<clipPath id="clip0_493_3610">
<rect width="17" height="17" fill="white" transform="translate(0.552734 0.391602)"/>
</clipPath>
<clipPath id="clip1_493_3610">
<rect width="17" height="17" fill="white" transform="translate(0.552734 0.391602)"/>
</clipPath>
</defs>
</svg>
