<svg width="15" height="16" viewBox="0 0 15 16" fill="none" xmlns="http://www.w3.org/2000/svg">
<g clip-path="url(#clip0_410_1391)">
<path fill-rule="evenodd" clip-rule="evenodd" d="M7.5325 1.50342H7.4675C6.90562 1.50342 6.4375 1.50342 6.06625 1.55342C5.67375 1.60592 5.31938 1.72217 5.035 2.00654C4.75 2.29154 4.63375 2.64592 4.58125 3.03779C4.54562 3.30467 4.535 3.94154 4.5325 4.48779C3.26875 4.52967 2.50937 4.67717 1.9825 5.20467C1.25 5.93654 1.25 7.11529 1.25 9.47217C1.25 11.829 1.25 13.0078 1.9825 13.7397C2.71438 14.4722 3.89313 14.4722 6.25 14.4722H8.75C11.1069 14.4722 12.2856 14.4722 13.0175 13.7397C13.75 13.0078 13.75 11.829 13.75 9.47217C13.75 7.11529 13.75 5.93654 13.0175 5.20467C12.4906 4.67717 11.7312 4.52967 10.4675 4.48842C10.465 3.94154 10.455 3.30467 10.4187 3.03842C10.3663 2.64592 10.25 2.29154 9.965 2.00717C9.68062 1.72217 9.32625 1.60592 8.93375 1.55342C8.5625 1.50342 8.09375 1.50342 7.5325 1.50342ZM9.53 4.47342C9.52688 3.94404 9.51812 3.37467 9.49 3.16279C9.45063 2.87467 9.38375 2.75092 9.3025 2.66967C9.22125 2.58842 9.0975 2.52154 8.80875 2.48217C8.5075 2.44217 8.1025 2.44092 7.5 2.44092C6.8975 2.44092 6.4925 2.44217 6.19062 2.48279C5.9025 2.52154 5.77875 2.58842 5.6975 2.67029C5.61625 2.75154 5.54938 2.87467 5.51 3.16279C5.48187 3.37529 5.4725 3.94404 5.47 4.47342C5.71438 4.47217 5.975 4.47217 6.25 4.47217H8.75C9.02563 4.47217 9.28563 4.47217 9.53 4.47342ZM7.5 6.50342C7.62432 6.50342 7.74355 6.5528 7.83146 6.64071C7.91936 6.72862 7.96875 6.84785 7.96875 6.97217V6.97842C8.64937 7.14967 9.21875 7.68654 9.21875 8.43029C9.21875 8.55461 9.16936 8.67384 9.08146 8.76175C8.99355 8.84966 8.87432 8.89904 8.75 8.89904C8.62568 8.89904 8.50645 8.84966 8.41854 8.76175C8.33064 8.67384 8.28125 8.55461 8.28125 8.43029C8.28125 8.19029 8.015 7.85779 7.5 7.85779C6.985 7.85779 6.71875 8.19029 6.71875 8.43029C6.71875 8.67029 6.985 9.00342 7.5 9.00342C8.36562 9.00342 9.21875 9.60342 9.21875 10.514C9.21875 11.2578 8.64937 11.794 7.96875 11.9659V11.9722C7.96875 12.0965 7.91936 12.2157 7.83146 12.3036C7.74355 12.3915 7.62432 12.4409 7.5 12.4409C7.37568 12.4409 7.25645 12.3915 7.16854 12.3036C7.08064 12.2157 7.03125 12.0965 7.03125 11.9722V11.9659C6.35063 11.7947 5.78125 11.2578 5.78125 10.514C5.78125 10.3897 5.83064 10.2705 5.91854 10.1826C6.00645 10.0947 6.12568 10.0453 6.25 10.0453C6.37432 10.0453 6.49355 10.0947 6.58146 10.1826C6.66936 10.2705 6.71875 10.3897 6.71875 10.514C6.71875 10.754 6.985 11.0865 7.5 11.0865C8.015 11.0865 8.28125 10.754 8.28125 10.514C8.28125 10.274 8.015 9.94092 7.5 9.94092C6.63438 9.94092 5.78125 9.34092 5.78125 8.43029C5.78125 7.68654 6.35063 7.14967 7.03125 6.97842V6.97217C7.03125 6.84785 7.08064 6.72862 7.16854 6.64071C7.25645 6.5528 7.37568 6.50342 7.5 6.50342Z" fill="#54575E"/>
</g>
<defs>
<clipPath id="clip0_410_1391">
<rect width="15" height="15" fill="white" transform="translate(0 0.722168)"/>
</clipPath>
</defs>
</svg>
