<svg width="15" height="16" viewBox="0 0 15 16" fill="none" xmlns="http://www.w3.org/2000/svg">
<g clip-path="url(#clip0_500_87)">
<path fill-rule="evenodd" clip-rule="evenodd" d="M7.5325 1.39502H7.4675C6.90562 1.39502 6.4375 1.39502 6.06625 1.44502C5.67375 1.49752 5.31938 1.61377 5.035 1.89814C4.75 2.18314 4.63375 2.53752 4.58125 2.92939C4.54562 3.19627 4.535 3.83314 4.5325 4.37939C3.26875 4.42127 2.50937 4.56877 1.9825 5.09627C1.25 5.82814 1.25 7.00689 1.25 9.36377C1.25 11.7206 1.25 12.8994 1.9825 13.6313C2.71438 14.3638 3.89313 14.3638 6.25 14.3638H8.75C11.1069 14.3638 12.2856 14.3638 13.0175 13.6313C13.75 12.8994 13.75 11.7206 13.75 9.36377C13.75 7.00689 13.75 5.82814 13.0175 5.09627C12.4906 4.56877 11.7312 4.42127 10.4675 4.38002C10.465 3.83314 10.455 3.19627 10.4187 2.93002C10.3663 2.53752 10.25 2.18314 9.965 1.89877C9.68062 1.61377 9.32625 1.49752 8.93375 1.44502C8.5625 1.39502 8.09375 1.39502 7.5325 1.39502ZM9.53 4.36502C9.52688 3.83564 9.51812 3.26627 9.49 3.05439C9.45063 2.76627 9.38375 2.64252 9.3025 2.56127C9.22125 2.48002 9.0975 2.41314 8.80875 2.37377C8.5075 2.33377 8.1025 2.33252 7.5 2.33252C6.8975 2.33252 6.4925 2.33377 6.19062 2.37439C5.9025 2.41314 5.77875 2.48002 5.6975 2.56189C5.61625 2.64314 5.54938 2.76627 5.51 3.05439C5.48187 3.26689 5.4725 3.83564 5.47 4.36502C5.71438 4.36377 5.975 4.36377 6.25 4.36377H8.75C9.02563 4.36377 9.28563 4.36377 9.53 4.36502ZM7.5 6.39502C7.62432 6.39502 7.74355 6.44441 7.83146 6.53231C7.91936 6.62022 7.96875 6.73945 7.96875 6.86377V6.87002C8.64937 7.04127 9.21875 7.57814 9.21875 8.32189C9.21875 8.44621 9.16936 8.56544 9.08146 8.65335C8.99355 8.74126 8.87432 8.79064 8.75 8.79064C8.62568 8.79064 8.50645 8.74126 8.41854 8.65335C8.33064 8.56544 8.28125 8.44621 8.28125 8.32189C8.28125 8.08189 8.015 7.74939 7.5 7.74939C6.985 7.74939 6.71875 8.08189 6.71875 8.32189C6.71875 8.56189 6.985 8.89502 7.5 8.89502C8.36562 8.89502 9.21875 9.49502 9.21875 10.4056C9.21875 11.1494 8.64937 11.6856 7.96875 11.8575V11.8638C7.96875 11.9881 7.91936 12.1073 7.83146 12.1952C7.74355 12.2831 7.62432 12.3325 7.5 12.3325C7.37568 12.3325 7.25645 12.2831 7.16854 12.1952C7.08064 12.1073 7.03125 11.9881 7.03125 11.8638V11.8575C6.35063 11.6863 5.78125 11.1494 5.78125 10.4056C5.78125 10.2813 5.83064 10.1621 5.91854 10.0742C6.00645 9.98628 6.12568 9.93689 6.25 9.93689C6.37432 9.93689 6.49355 9.98628 6.58146 10.0742C6.66936 10.1621 6.71875 10.2813 6.71875 10.4056C6.71875 10.6456 6.985 10.9781 7.5 10.9781C8.015 10.9781 8.28125 10.6456 8.28125 10.4056C8.28125 10.1656 8.015 9.83252 7.5 9.83252C6.63438 9.83252 5.78125 9.23252 5.78125 8.32189C5.78125 7.57814 6.35063 7.04127 7.03125 6.87002V6.86377C7.03125 6.73945 7.08064 6.62022 7.16854 6.53231C7.25645 6.44441 7.37568 6.39502 7.5 6.39502Z" fill="#54575E"/>
</g>
<defs>
<clipPath id="clip0_500_87">
<rect width="15" height="15" fill="white" transform="translate(0 0.61377)"/>
</clipPath>
</defs>
</svg>
