<svg width="15" height="16" viewBox="0 0 15 16" fill="none" xmlns="http://www.w3.org/2000/svg">
<g clip-path="url(#clip0_410_1397)">
<path d="M12.4942 6.61874C12.813 6.36874 12.813 5.88124 12.4942 5.63124L8.26923 2.34374C7.81923 1.99374 7.18798 1.99374 6.73173 2.34374L5.88173 3.01249L10.8067 7.93749L12.4942 6.61874ZM12.4942 8.79999L12.488 8.79374C12.3791 8.7087 12.2449 8.6625 12.1067 8.6625C11.9686 8.6625 11.8344 8.7087 11.7255 8.79374L11.6942 8.81874L12.5692 9.69374C12.6257 9.63139 12.6687 9.5581 12.6956 9.47842C12.7225 9.39875 12.7328 9.31439 12.7258 9.23059C12.7187 9.14678 12.6946 9.06531 12.6547 8.99124C12.6149 8.91717 12.5603 8.85207 12.4942 8.79999ZM13.4005 12.3L2.57548 1.47499C2.51762 1.41713 2.44892 1.37123 2.37332 1.33991C2.29772 1.3086 2.21669 1.29248 2.13486 1.29248C2.05302 1.29248 1.97199 1.3086 1.89639 1.33991C1.82079 1.37123 1.7521 1.41713 1.69423 1.47499C1.63637 1.53286 1.59047 1.60155 1.55915 1.67715C1.52784 1.75276 1.51172 1.83379 1.51172 1.91562C1.51172 1.99745 1.52784 2.07848 1.55915 2.15408C1.59047 2.22969 1.63637 2.29838 1.69423 2.35624L3.89423 4.55624L2.50673 5.63124C2.18798 5.88124 2.18798 6.36874 2.50673 6.61874L6.73173 9.90624C7.18173 10.2562 7.81298 10.2562 8.26923 9.90624L8.81298 9.48124L9.70048 10.3687L7.87548 11.7875C7.65048 11.9625 7.33173 11.9625 7.10673 11.7875L3.26298 8.79999C3.15409 8.71495 3.0199 8.66875 2.88173 8.66875C2.74357 8.66875 2.60937 8.71495 2.50048 8.79999C2.42604 8.85828 2.36583 8.93275 2.32443 9.01775C2.28302 9.10276 2.26151 9.19607 2.26151 9.29062C2.26151 9.38517 2.28302 9.47848 2.32443 9.56348C2.36583 9.64849 2.42604 9.72295 2.50048 9.78124L6.72548 13.0687C7.17548 13.4187 7.80673 13.4187 8.26298 13.0687L10.588 11.2625L12.5067 13.1812C12.7505 13.425 13.1442 13.425 13.388 13.1812C13.6442 12.9375 13.6442 12.5437 13.4005 12.3Z" fill="#54575E"/>
</g>
<defs>
<clipPath id="clip0_410_1397">
<rect width="15" height="15" fill="white" transform="translate(0 0.5)"/>
</clipPath>
</defs>
</svg>
