<svg width="18" height="18" viewBox="0 0 18 18" fill="none" xmlns="http://www.w3.org/2000/svg">
<g clip-path="url(#clip0_500_1051)">
<path d="M7.63639 3.2251C6.88495 3.2251 6.16428 3.52361 5.63292 4.05496C5.10157 4.58631 4.80306 5.30698 4.80306 6.05843C4.80306 6.80988 5.10157 7.53055 5.63292 8.0619C6.16428 8.59325 6.88495 8.89176 7.63639 8.89176C8.38784 8.89176 9.10851 8.59325 9.63986 8.0619C10.1712 7.53055 10.4697 6.80988 10.4697 6.05843C10.4697 5.30698 10.1712 4.58631 9.63986 4.05496C9.10851 3.52361 8.38784 3.2251 7.63639 3.2251ZM12.5947 8.89176C12.5514 8.89096 12.5093 8.90543 12.4756 8.93263C12.4419 8.95983 12.4189 8.99803 12.4106 9.04051L12.276 9.97551C12.0635 10.0676 11.8581 10.1809 11.6739 10.3084L10.7956 9.95426C10.7176 9.95426 10.6256 9.95426 10.576 10.0463L9.86764 11.2718C9.82514 11.3497 9.83931 11.4418 9.91014 11.4984L10.661 12.0793C10.6327 12.3145 10.6327 12.5523 10.661 12.7876L9.91014 13.3684C9.87831 13.3957 9.85675 13.4331 9.84902 13.4743C9.8413 13.5155 9.84786 13.5581 9.86764 13.5951L10.576 14.8205C10.6185 14.9126 10.7106 14.9126 10.7956 14.9126L11.6739 14.5584C11.8581 14.6859 12.0564 14.8063 12.276 14.8913L12.4106 15.8263C12.4247 15.9113 12.4956 15.9751 12.5947 15.9751H14.0114C14.0893 15.9751 14.1672 15.9113 14.1814 15.8263L14.316 14.8913C14.5285 14.7993 14.7197 14.6859 14.911 14.5584L15.7822 14.9126C15.8743 14.9126 15.9664 14.9126 16.016 14.8205L16.7243 13.5951C16.7441 13.5581 16.7507 13.5155 16.7429 13.4743C16.7352 13.4331 16.7136 13.3957 16.6818 13.3684L15.9239 12.7876C15.9381 12.6672 15.9522 12.5538 15.9522 12.4334C15.9522 12.313 15.9451 12.1997 15.9239 12.0793L16.6747 11.4984C16.7066 11.4711 16.7281 11.4338 16.7358 11.3926C16.7436 11.3514 16.737 11.3087 16.7172 11.2718L16.0089 10.0463C15.9664 9.95426 15.8743 9.95426 15.7822 9.95426L14.911 10.3084C14.7197 10.1809 14.5285 10.0605 14.3089 9.97551L14.1743 9.04051C14.1698 9.00017 14.1509 8.96282 14.1209 8.93545C14.0909 8.90808 14.052 8.89255 14.0114 8.89176H12.5947ZM7.63639 10.3084C4.50556 10.3084 1.96973 11.5763 1.96973 13.1418V14.5584H8.82639C8.51026 13.8946 8.34574 13.1687 8.34473 12.4334C8.34616 11.7218 8.50078 11.0188 8.79806 10.3722C8.42264 10.3297 8.03306 10.3084 7.63639 10.3084ZM13.3031 11.3709C13.891 11.3709 14.3656 11.8455 14.3656 12.4334C14.3656 13.0213 13.891 13.4959 13.3031 13.4959C12.7081 13.4959 12.2406 13.0213 12.2406 12.4334C12.2406 11.8455 12.7151 11.3709 13.3031 11.3709Z" fill="#54575E"/>
</g>
<defs>
<clipPath id="clip0_500_1051">
<rect width="17" height="17" fill="white" transform="translate(0.552734 0.391602)"/>
</clipPath>
</defs>
</svg>
