<svg width="15" height="16" viewBox="0 0 15 16" fill="none" xmlns="http://www.w3.org/2000/svg">
<g clip-path="url(#clip0_500_1043)">
<path d="M12.4942 6.51034C12.813 6.26034 12.813 5.77284 12.4942 5.52284L8.26923 2.23534C7.81923 1.88534 7.18798 1.88534 6.73173 2.23534L5.88173 2.90409L10.8067 7.82909L12.4942 6.51034ZM12.4942 8.69159L12.488 8.68535C12.3791 8.6003 12.2449 8.5541 12.1067 8.5541C11.9686 8.5541 11.8344 8.6003 11.7255 8.68535L11.6942 8.71035L12.5692 9.58534C12.6257 9.52299 12.6687 9.4497 12.6956 9.37003C12.7225 9.29035 12.7328 9.20599 12.7258 9.12219C12.7187 9.03838 12.6946 8.95691 12.6547 8.88284C12.6149 8.80877 12.5603 8.74367 12.4942 8.69159ZM13.4005 12.1916L2.57548 1.36659C2.51762 1.30873 2.44892 1.26283 2.37332 1.23152C2.29772 1.2002 2.21669 1.18408 2.13486 1.18408C2.05302 1.18408 1.97199 1.2002 1.89639 1.23152C1.82079 1.26283 1.7521 1.30873 1.69423 1.36659C1.63637 1.42446 1.59047 1.49315 1.55915 1.56876C1.52784 1.64436 1.51172 1.72539 1.51172 1.80722C1.51172 1.88905 1.52784 1.97008 1.55915 2.04568C1.59047 2.12129 1.63637 2.18998 1.69423 2.24784L3.89423 4.44784L2.50673 5.52284C2.18798 5.77284 2.18798 6.26034 2.50673 6.51034L6.73173 9.79784C7.18173 10.1478 7.81298 10.1478 8.26923 9.79784L8.81298 9.37284L9.70048 10.2603L7.87548 11.6791C7.65048 11.8541 7.33173 11.8541 7.10673 11.6791L3.26298 8.69159C3.15409 8.60655 3.0199 8.56035 2.88173 8.56035C2.74357 8.56035 2.60937 8.60655 2.50048 8.69159C2.42604 8.74988 2.36583 8.82435 2.32443 8.90935C2.28302 8.99436 2.26151 9.08767 2.26151 9.18222C2.26151 9.27677 2.28302 9.37008 2.32443 9.45508C2.36583 9.54009 2.42604 9.61456 2.50048 9.67284L6.72548 12.9603C7.17548 13.3103 7.80673 13.3103 8.26298 12.9603L10.588 11.1541L12.5067 13.0728C12.7505 13.3166 13.1442 13.3166 13.388 13.0728C13.6442 12.8291 13.6442 12.4353 13.4005 12.1916Z" fill="#54575E"/>
</g>
<defs>
<clipPath id="clip0_500_1043">
<rect width="15" height="15" fill="white" transform="translate(0 0.391602)"/>
</clipPath>
</defs>
</svg>
