<svg width="15" height="16" viewBox="0 0 15 16" fill="none" xmlns="http://www.w3.org/2000/svg">
<g clip-path="url(#clip0_493_3552)">
<path d="M7.5 8.00293C8.88125 8.00293 10 6.88418 10 5.50293C10 4.12168 8.88125 3.00293 7.5 3.00293C6.11875 3.00293 5 4.12168 5 5.50293C5 6.88418 6.11875 8.00293 7.5 8.00293ZM7.5 9.25293C5.83125 9.25293 2.5 10.0904 2.5 11.7529V12.3779C2.5 12.7217 2.78125 13.0029 3.125 13.0029H11.875C12.2188 13.0029 12.5 12.7217 12.5 12.3779V11.7529C12.5 10.0904 9.16875 9.25293 7.5 9.25293Z" fill="#54575E"/>
</g>
<defs>
<clipPath id="clip0_493_3552">
<rect width="15" height="15" fill="white" transform="translate(0 0.50293)"/>
</clipPath>
</defs>
</svg>
