<svg width="18" height="18" viewBox="0 0 18 18" fill="none" xmlns="http://www.w3.org/2000/svg">
<g clip-path="url(#clip0_410_1336)">
<g clip-path="url(#clip1_410_1336)">
<path d="M7.33355 0.5V10.3312H9.77192V0.5H7.33355ZM2.54193 2.9892C1.00373 4.5274 0.0527344 6.65278 0.0527344 9C0.0527344 13.6944 3.85831 17.5 8.55273 17.5C13.2472 17.5 17.0527 13.6944 17.0527 9C17.0527 6.65278 16.1017 4.5274 14.5635 2.9892L12.8515 4.70124C13.9517 5.80139 14.632 7.32139 14.632 9C14.632 12.3572 11.91 15.0793 8.55273 15.0793C5.1955 15.0793 2.47345 12.3572 2.47345 9C2.47345 7.32139 3.1538 5.80139 4.25397 4.70124L2.54193 2.9892Z" fill="#54575E"/>
</g>
</g>
<defs>
<clipPath id="clip0_410_1336">
<rect width="17" height="17" fill="white" transform="translate(0.0527344 0.5)"/>
</clipPath>
<clipPath id="clip1_410_1336">
<rect width="17" height="17" fill="white" transform="translate(0.0527344 0.5)"/>
</clipPath>
</defs>
</svg>
