<svg width="15" height="16" viewBox="0 0 15 16" fill="none" xmlns="http://www.w3.org/2000/svg">
<g clip-path="url(#clip0_410_1379)">
<path d="M7.5 7.0415C7.84375 7.0415 8.13813 6.919 8.38313 6.67401C8.62813 6.42901 8.75042 6.13484 8.75 5.79151C8.75 5.44776 8.6275 5.15338 8.3825 4.90838C8.1375 4.66338 7.84333 4.54109 7.5 4.54151C7.15625 4.54151 6.86188 4.66401 6.61688 4.909C6.37188 5.15401 6.24958 5.44817 6.25 5.79151C6.25 6.13526 6.3725 6.42963 6.6175 6.67463C6.8625 6.91963 7.15667 7.04192 7.5 7.0415ZM4.375 6.91651V4.54151H3.125V5.16651C3.125 5.56234 3.23958 5.91921 3.46875 6.23713C3.69792 6.55505 4 6.78151 4.375 6.91651ZM10.625 6.91651C11 6.78109 11.3021 6.55442 11.5313 6.23651C11.7604 5.91859 11.875 5.56192 11.875 5.16651V4.54151H10.625V6.91651ZM6.875 12.0415V10.104C6.36458 9.98942 5.90875 9.77317 5.5075 9.45526C5.10625 9.13734 4.81208 8.73901 4.625 8.26025C3.84375 8.1665 3.19 7.82546 2.66375 7.23713C2.1375 6.6488 1.87458 5.95859 1.875 5.16651V4.54151C1.875 4.19776 1.9975 3.90338 2.2425 3.65838C2.4875 3.41338 2.78167 3.29109 3.125 3.2915H4.375C4.375 2.94775 4.4975 2.65338 4.7425 2.40838C4.9875 2.16338 5.28167 2.04109 5.625 2.0415H9.375C9.71875 2.0415 10.0131 2.164 10.2581 2.409C10.5031 2.654 10.6254 2.94817 10.625 3.2915H11.875C12.2188 3.2915 12.5131 3.414 12.7581 3.659C13.0031 3.904 13.1254 4.19817 13.125 4.54151V5.16651C13.125 5.95817 12.8619 6.64838 12.3356 7.23713C11.8094 7.82588 11.1558 8.16692 10.375 8.26025C10.1875 8.73942 9.89313 9.13796 9.49188 9.45588C9.09063 9.7738 8.635 9.98984 8.125 10.104V12.0415H10C10.1771 12.0415 10.3256 12.1015 10.4456 12.2215C10.5656 12.3415 10.6254 12.4898 10.625 12.6665C10.625 12.8436 10.565 12.9921 10.445 13.1121C10.325 13.2321 10.1767 13.2919 10 13.2915H5C4.82292 13.2915 4.67438 13.2315 4.55438 13.1115C4.43438 12.9915 4.37458 12.8432 4.375 12.6665C4.375 12.4894 4.435 12.3409 4.555 12.2209C4.675 12.1009 4.82333 12.0411 5 12.0415H6.875Z" fill="#54575E"/>
</g>
<defs>
<clipPath id="clip0_410_1379">
<rect width="15" height="15" fill="white" transform="translate(0 0.166504)"/>
</clipPath>
</defs>
</svg>
