<svg width="18" height="18" viewBox="0 0 18 18" fill="none" xmlns="http://www.w3.org/2000/svg">
<g clip-path="url(#clip0_493_3524)">
<path d="M7.167 13.8497V10.308H10.0338V13.8497C10.0338 14.2393 10.3563 14.558 10.7505 14.558H12.9006C13.2948 14.558 13.6173 14.2393 13.6173 13.8497V8.89137H14.8357C15.1654 8.89137 15.323 8.48762 15.0722 8.27512L9.08058 2.94137C8.80824 2.70053 8.39255 2.70053 8.12021 2.94137L2.1286 8.27512C1.88492 8.48762 2.03543 8.89137 2.36511 8.89137H3.5835V13.8497C3.5835 14.2393 3.90601 14.558 4.3002 14.558H6.4503C6.84448 14.558 7.167 14.2393 7.167 13.8497Z" fill="#C4C4C4"/>
</g>
<defs>
<clipPath id="clip0_493_3524">
<rect width="17.2008" height="17" fill="white" transform="translate(0 0.391602)"/>
</clipPath>
</defs>
</svg>
