<svg width="18" height="18" viewBox="0 0 18 18" fill="none" xmlns="http://www.w3.org/2000/svg">
<g clip-path="url(#clip0_410_1330)">
<path d="M7.13639 3.3335C6.38495 3.3335 5.66428 3.63201 5.13292 4.16336C4.60157 4.69471 4.30306 5.41538 4.30306 6.16683C4.30306 6.91828 4.60157 7.63895 5.13292 8.1703C5.66428 8.70165 6.38495 9.00016 7.13639 9.00016C7.88784 9.00016 8.60851 8.70165 9.13986 8.1703C9.67122 7.63895 9.96973 6.91828 9.96973 6.16683C9.96973 5.41538 9.67122 4.69471 9.13986 4.16336C8.60851 3.63201 7.88784 3.3335 7.13639 3.3335ZM12.0947 9.00016C12.0514 8.99936 12.0093 9.01382 11.9756 9.04103C11.9419 9.06823 11.9189 9.10643 11.9106 9.14891L11.776 10.0839C11.5635 10.176 11.3581 10.2893 11.1739 10.4168L10.2956 10.0627C10.2176 10.0627 10.1256 10.0627 10.076 10.1547L9.36764 11.3802C9.32514 11.4581 9.33931 11.5502 9.41014 11.6068L10.161 12.1877C10.1327 12.4229 10.1327 12.6607 10.161 12.896L9.41014 13.4768C9.37831 13.5041 9.35675 13.5415 9.34902 13.5827C9.3413 13.6239 9.34786 13.6665 9.36764 13.7035L10.076 14.9289C10.1185 15.021 10.2106 15.021 10.2956 15.021L11.1739 14.6668C11.3581 14.7943 11.5564 14.9147 11.776 14.9997L11.9106 15.9347C11.9247 16.0197 11.9956 16.0835 12.0947 16.0835H13.5114C13.5893 16.0835 13.6672 16.0197 13.6814 15.9347L13.816 14.9997C14.0285 14.9077 14.2197 14.7943 14.411 14.6668L15.2822 15.021C15.3743 15.021 15.4664 15.021 15.516 14.9289L16.2243 13.7035C16.2441 13.6665 16.2507 13.6239 16.2429 13.5827C16.2352 13.5415 16.2136 13.5041 16.1818 13.4768L15.4239 12.896C15.4381 12.7756 15.4522 12.6622 15.4522 12.5418C15.4522 12.4214 15.4451 12.3081 15.4239 12.1877L16.1747 11.6068C16.2066 11.5795 16.2281 11.5422 16.2358 11.501C16.2436 11.4598 16.237 11.4171 16.2172 11.3802L15.5089 10.1547C15.4664 10.0627 15.3743 10.0627 15.2822 10.0627L14.411 10.4168C14.2197 10.2893 14.0285 10.1689 13.8089 10.0839L13.6743 9.14891C13.6698 9.10856 13.6509 9.07122 13.6209 9.04385C13.5909 9.01648 13.552 9.00095 13.5114 9.00016H12.0947ZM7.13639 10.4168C4.00556 10.4168 1.46973 11.6847 1.46973 13.2502V14.6668H8.32639C8.01026 14.003 7.84574 13.2771 7.84473 12.5418C7.84616 11.8302 8.00078 11.1272 8.29806 10.4806C7.92264 10.4381 7.53306 10.4168 7.13639 10.4168ZM12.8031 11.4793C13.391 11.4793 13.8656 11.9539 13.8656 12.5418C13.8656 13.1297 13.391 13.6043 12.8031 13.6043C12.2081 13.6043 11.7406 13.1297 11.7406 12.5418C11.7406 11.9539 12.2151 11.4793 12.8031 11.4793Z" fill="#54575E"/>
</g>
<defs>
<clipPath id="clip0_410_1330">
<rect width="17" height="17" fill="white" transform="translate(0.0527344 0.5)"/>
</clipPath>
</defs>
</svg>
