<svg width="15" height="16" viewBox="0 0 15 16" fill="none" xmlns="http://www.w3.org/2000/svg">
<g clip-path="url(#clip0_410_1361)">
<path fill-rule="evenodd" clip-rule="evenodd" d="M6.25 3.54199H8.75C11.1069 3.54199 12.2856 3.54199 13.0175 4.27449C13.545 4.80137 13.6925 5.56012 13.7338 6.82324H1.26625C1.3075 5.56012 1.455 4.80137 1.9825 4.27449C2.71438 3.54199 3.89313 3.54199 6.25 3.54199ZM8.75 13.542H6.25C3.89313 13.542 2.71438 13.542 1.9825 12.8095C1.25 12.0776 1.25 10.8989 1.25 8.54199C1.25 8.26574 1.25 8.00574 1.25125 7.76074H13.7487C13.75 8.00574 13.75 8.26574 13.75 8.54199C13.75 10.8989 13.75 12.0776 13.0175 12.8095C12.2856 13.542 11.1069 13.542 8.75 13.542ZM3.75 10.5732C3.62568 10.5732 3.50645 10.6226 3.41854 10.7105C3.33064 10.7984 3.28125 10.9177 3.28125 11.042C3.28125 11.1663 3.33064 11.2855 3.41854 11.3734C3.50645 11.4614 3.62568 11.5107 3.75 11.5107H6.25C6.37432 11.5107 6.49355 11.4614 6.58146 11.3734C6.66936 11.2855 6.71875 11.1663 6.71875 11.042C6.71875 10.9177 6.66936 10.7984 6.58146 10.7105C6.49355 10.6226 6.37432 10.5732 6.25 10.5732H3.75ZM7.8125 10.5732C7.68818 10.5732 7.56895 10.6226 7.48104 10.7105C7.39314 10.7984 7.34375 10.9177 7.34375 11.042C7.34375 11.1663 7.39314 11.2855 7.48104 11.3734C7.56895 11.4614 7.68818 11.5107 7.8125 11.5107H8.75C8.87432 11.5107 8.99355 11.4614 9.08146 11.3734C9.16936 11.2855 9.21875 11.1663 9.21875 11.042C9.21875 10.9177 9.16936 10.7984 9.08146 10.7105C8.99355 10.6226 8.87432 10.5732 8.75 10.5732H7.8125Z" fill="#54575E"/>
</g>
<defs>
<clipPath id="clip0_410_1361">
<rect width="15" height="15" fill="white" transform="translate(0 0.833496)"/>
</clipPath>
</defs>
</svg>
