<svg width="20" height="20" viewBox="0 0 20 20" fill="none" xmlns="http://www.w3.org/2000/svg">
<g clip-path="url(#clip0_493_3446)">
<path d="M14.3749 5.0207H14.3785ZM18.7324 3.8332H15.1753L15.5238 2.50988L17.0206 2.02561C17.339 1.92281 17.5285 1.60145 17.4367 1.29418C17.4133 1.21689 17.3737 1.1449 17.3201 1.0826C17.2666 1.0203 17.2003 0.968974 17.1253 0.93174C17.0503 0.894505 16.9681 0.872138 16.8837 0.865993C16.7993 0.859849 16.7144 0.870057 16.6343 0.895996L14.7984 1.48975C14.6995 1.52178 14.6107 1.57684 14.54 1.6499C14.4693 1.72296 14.419 1.81168 14.3937 1.90797L13.8871 3.8332H8.76752C8.43119 3.8332 8.14252 4.07887 8.12572 4.39838C8.12165 4.47866 8.13478 4.55889 8.16431 4.63421C8.19384 4.70953 8.23917 4.77836 8.29753 4.83655C8.35589 4.89474 8.42609 4.94106 8.50385 4.97272C8.58162 5.00437 8.66534 5.0207 8.74994 5.0207H8.85736L8.89643 5.34207C8.90563 5.41712 8.94354 5.48634 9.00296 5.53656C9.06238 5.58678 9.13916 5.6145 9.21869 5.61445C10.7421 5.61445 12.096 6.01894 13.1296 6.78414C13.7045 7.20496 14.1706 7.74505 14.4921 8.36314C14.6721 8.71082 14.805 9.07879 14.8874 9.45824C14.9039 9.53219 14.95 9.59714 15.016 9.63934C15.5473 9.98186 15.9393 10.4868 16.1268 11.0703C16.3143 11.6538 16.2859 12.2807 16.0464 12.8467C16.0186 12.9122 16.0165 12.9851 16.0406 13.0519C16.179 13.4287 16.2497 13.8248 16.2499 14.2238C16.2499 15.0529 15.9531 15.8429 15.414 16.4485C15.1084 16.7942 14.7239 17.0692 14.2898 17.2527C14.2147 17.2841 14.1556 17.3424 14.1253 17.4149C13.9631 17.8164 13.734 18.1905 13.4468 18.5229C13.4349 18.5364 13.4272 18.5529 13.4247 18.5704C13.4223 18.5878 13.4251 18.6056 13.4329 18.6216C13.4407 18.6376 13.4531 18.6512 13.4687 18.6607C13.4843 18.6703 13.5025 18.6754 13.521 18.6755H15.4433C15.9139 18.6736 16.3668 18.5045 16.7128 18.2013C17.0587 17.8982 17.2726 17.483 17.3124 17.0375L18.6484 5.0207H18.7499C18.8346 5.0208 18.9184 5.00455 18.9963 4.97294C19.0741 4.94133 19.1444 4.89502 19.2029 4.83682C19.2613 4.77862 19.3067 4.70975 19.3363 4.63438C19.3659 4.55901 19.379 4.47872 19.3749 4.39838C19.3585 4.07887 19.0687 3.8332 18.7324 3.8332Z" fill="#231F20"/>
<path d="M4.2457 12.1455C4.36897 12.145 4.49113 12.1676 4.60512 12.2122C4.7191 12.2568 4.82265 12.3224 4.90977 12.4053L5.51563 12.9808C5.53014 12.9946 5.54737 13.0056 5.56634 13.0131C5.58531 13.0205 5.60564 13.0244 5.62617 13.0244C5.64671 13.0244 5.66704 13.0205 5.68601 13.0131C5.70498 13.0056 5.72221 12.9946 5.73672 12.9808L6.34141 12.4053C6.42853 12.3224 6.53207 12.2568 6.64606 12.2122C6.76004 12.1676 6.8822 12.145 7.00547 12.1455H14.6844C14.7254 12.1459 14.7661 12.1386 14.8042 12.124C14.8423 12.1095 14.877 12.088 14.9063 12.0607C14.9356 12.0334 14.9589 12.0009 14.975 11.965C14.9911 11.9291 14.9996 11.8906 15 11.8516V11.8486C14.9996 11.5066 14.875 11.1751 14.6473 10.9101C14.4196 10.6451 14.1027 10.4628 13.75 10.3939C13.718 9.29217 13.2422 8.37 12.3629 7.72207C11.5496 7.11941 10.4629 6.80176 9.21875 6.80176H6.40625C3.74141 6.80176 1.93633 8.24049 1.875 10.3939C1.52231 10.4628 1.20541 10.6451 0.977707 10.9101C0.750008 11.1751 0.62544 11.5066 0.625 11.8486C0.625 11.9274 0.657924 12.0029 0.716529 12.0586C0.775135 12.1142 0.85462 12.1455 0.9375 12.1455H4.2457ZM7.26328 13.333C7.22223 13.333 7.18158 13.3406 7.14364 13.3555C7.10571 13.3704 7.07123 13.3923 7.04219 13.4198L6.17734 14.2418C6.03084 14.381 5.83216 14.4591 5.625 14.4591C5.41784 14.4591 5.21916 14.381 5.07266 14.2418L4.20781 13.4198C4.17877 13.3923 4.1443 13.3704 4.10636 13.3555C4.06842 13.3406 4.02777 13.333 3.98672 13.333H1.27578C1.12897 13.3324 0.98665 13.3811 0.873992 13.4705C0.761335 13.56 0.685592 13.6844 0.660157 13.8217C0.636689 13.9545 0.62493 14.089 0.625 14.2236C0.625 15.3588 1.45039 16.2836 2.47109 16.3018C2.56602 16.8629 2.7957 17.3698 3.14141 17.7665C3.65273 18.3532 4.39609 18.6768 5.23438 18.6768H10.3906C11.2289 18.6768 11.9723 18.3532 12.4836 17.7657C12.8293 17.369 13.059 16.8621 13.1539 16.301C14.1746 16.2836 15 15.3588 15 14.2229C15.0001 14.0882 14.9883 13.9538 14.9648 13.821C14.9392 13.6838 14.8634 13.5595 14.7508 13.4703C14.6381 13.381 14.4959 13.3324 14.3492 13.333H7.26328Z" fill="#231F20"/>
</g>
<defs>
<clipPath id="clip0_493_3446">
<rect width="20" height="19" fill="white" transform="translate(0 0.270508)"/>
</clipPath>
</defs>
</svg>
