<svg width="22" height="23" viewBox="0 0 22 23" fill="none" xmlns="http://www.w3.org/2000/svg">
<path d="M12.2835 11.3418V6.75846C12.2835 6.51535 12.187 6.28219 12.015 6.11028C11.8431 5.93837 11.61 5.8418 11.3669 5.8418C11.1237 5.8418 10.8906 5.93837 10.7187 6.11028C10.5468 6.28219 10.4502 6.51535 10.4502 6.75846V11.3418H5.86686C5.62375 11.3418 5.39059 11.4384 5.21868 11.6103C5.04677 11.7822 4.9502 12.0153 4.9502 12.2585C4.9502 12.5016 5.04677 12.7347 5.21868 12.9066C5.39059 13.0786 5.62375 13.1751 5.86686 13.1751H10.4502V17.7585C10.4502 18.0016 10.5468 18.2347 10.7187 18.4066C10.8906 18.5786 11.1237 18.6751 11.3669 18.6751C11.61 18.6751 11.8431 18.5786 12.015 18.4066C12.187 18.2347 12.2835 18.0016 12.2835 17.7585V13.1751H16.8669C17.11 13.1751 17.3431 13.0786 17.515 12.9066C17.687 12.7347 17.7835 12.5016 17.7835 12.2585C17.7835 12.0153 17.687 11.7822 17.515 11.6103C17.3431 11.4384 17.11 11.3418 16.8669 11.3418H12.2835Z" fill="#231F20"/>
</svg>
