<svg width="40" height="41" viewBox="0 0 40 41" fill="none" xmlns="http://www.w3.org/2000/svg">
<g clip-path="url(#clip0_493_3386)">
<rect width="40" height="40" transform="translate(0 0.891602)" fill="#D6F0FF"/>
<path d="M33.9312 4.00494C31.7541 1.90137 27.8188 0.999512 22.7844 0.999512H8.17307C7.67496 0.999527 7.19319 1.15018 6.81438 1.42438C6.43558 1.69858 6.18458 2.07835 6.10651 2.49541L0.0226237 35.2063C-0.0983041 35.8513 0.490868 36.4354 1.26206 36.4354H10.2826L12.548 24.2538L12.4777 24.6353C12.6391 23.7742 13.5078 23.1391 14.5365 23.1391H18.823C27.2439 23.1391 33.8376 20.2395 35.7637 11.8516C35.8209 11.6035 35.8704 11.362 35.9132 11.1261C35.6701 11.017 35.6701 11.017 35.9132 11.1261C36.4867 8.02587 35.9093 5.91554 33.9312 4.00494Z" fill="#27346A"/>
<path d="M15.9996 10.0093C16.2462 9.90977 16.516 9.85818 16.7891 9.85832H28.2441C29.6006 9.85832 30.8658 9.93315 32.0219 10.0909C32.3455 10.1346 32.6673 10.1868 32.987 10.2475C33.4402 10.3322 33.8881 10.436 34.3291 10.5583C34.8975 10.7192 35.4268 10.9067 35.9133 11.1261C36.4867 8.02468 35.9093 5.91554 33.9312 4.00494C31.7529 1.90137 27.8188 0.999512 22.7844 0.999512H8.17181C7.14299 0.999512 6.26775 1.63448 6.10651 2.49541L0.0226246 35.2051C-0.0983032 35.8512 0.490868 36.4345 1.26081 36.4345H10.2826L14.9827 11.1669C15.0289 10.9186 15.1456 10.6834 15.3227 10.4818C15.4999 10.2801 15.7322 10.118 15.9996 10.0093Z" fill="#27346A"/>
<path d="M35.7639 11.8519C33.8378 20.2386 27.2442 23.1394 18.8232 23.1394H14.5354C13.5067 23.1394 12.6379 23.7745 12.4781 24.6356L9.6597 39.782C9.5544 40.3465 10.0694 40.858 10.7431 40.858H18.3471C18.7827 40.8579 19.204 40.726 19.5351 40.4862C19.8663 40.2463 20.0856 39.9141 20.1537 39.5494L20.2278 39.2209L21.6609 31.5208L21.7533 31.0952C21.8213 30.7305 22.0406 30.3983 22.3718 30.1585C22.7029 29.9186 23.1241 29.7867 23.5597 29.7866H24.6977C32.0638 29.7866 37.8317 27.2496 39.5172 19.9124C40.2207 16.8462 39.8567 14.2862 37.9956 12.4881C37.4311 11.9434 36.73 11.4936 35.9134 11.1265C35.8692 11.3636 35.8212 11.6038 35.7639 11.8519Z" fill="#2790C3"/>
<path d="M33.8974 10.445C33.5971 10.3707 33.294 10.3049 32.9885 10.2477C32.6686 10.1881 32.3468 10.1362 32.0234 10.0922C30.866 9.93337 29.6017 9.8584 28.244 9.8584H16.7904C16.517 9.85788 16.2471 9.90991 16.0009 10.0106C15.7332 10.1189 15.5006 10.281 15.3234 10.4827C15.1462 10.6844 15.0296 10.9197 14.9838 11.1682L12.5493 24.254L12.479 24.6355C12.6391 23.7744 13.5078 23.1393 14.5367 23.1393H18.8244C27.2453 23.1393 33.8389 20.2397 35.765 11.8518C35.8223 11.6037 35.8704 11.3633 35.9146 11.1264C35.4269 10.9081 34.8989 10.7195 34.3304 10.5596C34.1869 10.5193 34.0426 10.4811 33.8976 10.445" fill="#1F264F"/>
</g>
<defs>
<clipPath id="clip0_493_3386">
<rect width="40" height="40" fill="white" transform="translate(0 0.891602)"/>
</clipPath>
</defs>
</svg>
