<svg width="39" height="39" viewBox="0 0 39 39" fill="none" xmlns="http://www.w3.org/2000/svg">
<path d="M28.6837 34.4579L24.2503 29.7079L26.1503 27.8079L28.6837 30.3413L34.3837 24.6413L36.2837 26.8579L28.6837 34.4579ZM21.0837 16.7246H16.3337V27.8079H19.6587C19.817 26.5413 20.4503 25.2746 21.0837 24.1663V16.7246ZM25.8337 16.7246V20.3663C26.7837 20.0496 27.892 19.8913 29.0003 19.8913C29.4753 19.8913 30.1087 19.8913 30.5837 20.0496V16.7246H25.8337ZM19.6587 30.9746H3.66699V35.7246H21.8753C20.767 34.4579 19.9753 32.7163 19.6587 30.9746ZM33.7503 10.3913L18.7087 2.47461L3.66699 10.3913V13.5579H33.7503V10.3913ZM11.5837 27.8079V16.7246H6.83366V27.8079H11.5837Z" fill="#2C42C2"/>
</svg>
