<svg width="39" height="39" viewBox="0 0 39 39" fill="none" xmlns="http://www.w3.org/2000/svg">
<path d="M28.6832 34.4579L24.2498 29.7079L26.1498 27.8079L28.6832 30.3413L34.3832 24.6413L36.2832 26.8579L28.6832 34.4579ZM21.0832 16.7246H16.3332V27.8079H19.6582C19.8165 26.5413 20.4498 25.2746 21.0832 24.1663V16.7246ZM25.8332 16.7246V20.3663C26.7832 20.0496 27.8915 19.8913 28.9998 19.8913C29.4748 19.8913 30.1082 19.8913 30.5832 20.0496V16.7246H25.8332ZM19.6582 30.9746H3.6665V35.7246H21.8748C20.7665 34.4579 19.9748 32.7163 19.6582 30.9746ZM33.7498 10.3913L18.7082 2.47461L3.6665 10.3913V13.5579H33.7498V10.3913ZM11.5832 27.8079V16.7246H6.83317V27.8079H11.5832Z" fill="#2C42C2"/>
</svg>
