<svg width="39" height="39" viewBox="0 0 39 39" fill="none" xmlns="http://www.w3.org/2000/svg">
<g clip-path="url(#clip0_493_3258)">
<path d="M30.5711 6.7251C31.411 6.7251 32.2164 7.05873 32.8103 7.65259C33.4042 8.24646 33.7378 9.05191 33.7378 9.89176V11.4751H24.2378C22.1382 11.4751 20.1245 12.3092 18.6399 13.7938C17.1552 15.2785 16.3211 17.2921 16.3211 19.3918C16.3211 21.4914 17.1552 23.505 18.6399 24.9897C20.1245 26.4744 22.1382 27.3084 24.2378 27.3084H33.7378V28.8918C33.7378 29.7316 33.4042 30.5371 32.8103 31.1309C32.2164 31.7248 31.411 32.0584 30.5711 32.0584H8.40446C7.56461 32.0584 6.75915 31.7248 6.16529 31.1309C5.57142 30.5371 5.23779 29.7316 5.23779 28.8918V9.89176C5.23779 9.05191 5.57142 8.24646 6.16529 7.65259C6.75915 7.05873 7.56461 6.7251 8.40446 6.7251H30.5711ZM32.1545 14.6418C32.9943 14.6418 33.7998 14.9754 34.3936 15.5693C34.9875 16.1631 35.3211 16.9686 35.3211 17.8084V20.9751C35.3211 21.8149 34.9875 22.6204 34.3936 23.2143C33.7998 23.8081 32.9943 24.1418 32.1545 24.1418H24.2378C22.978 24.1418 21.7698 23.6413 20.879 22.7505C19.9882 21.8597 19.4878 20.6515 19.4878 19.3918C19.4878 18.132 19.9882 16.9238 20.879 16.033C21.7698 15.1422 22.978 14.6418 24.2378 14.6418H32.1545ZM24.2378 17.8084C23.8179 17.8084 23.4151 17.9752 23.1182 18.2722C22.8213 18.5691 22.6545 18.9718 22.6545 19.3918C22.6545 19.8117 22.8213 20.2144 23.1182 20.5113C23.4151 20.8083 23.8179 20.9751 24.2378 20.9751C24.6577 20.9751 25.0604 20.8083 25.3574 20.5113C25.6543 20.2144 25.8211 19.8117 25.8211 19.3918C25.8211 18.9718 25.6543 18.5691 25.3574 18.2722C25.0604 17.9752 24.6577 17.8084 24.2378 17.8084Z" fill="#2C42C2"/>
</g>
<defs>
<clipPath id="clip0_493_3258">
<rect width="38" height="38" fill="white" transform="translate(0.487793 0.391602)"/>
</clipPath>
</defs>
</svg>
