<svg width="16" height="17" viewBox="0 0 16 17" fill="none" xmlns="http://www.w3.org/2000/svg">
<g clip-path="url(#clip0_493_3434)">
<path fill-rule="evenodd" clip-rule="evenodd" d="M12 3.55827C12 3.38146 11.9298 3.21189 11.8047 3.08686C11.6797 2.96184 11.5101 2.8916 11.3333 2.8916C11.1565 2.8916 10.987 2.96184 10.8619 3.08686C10.7369 3.21189 10.6667 3.38146 10.6667 3.55827V4.22493H2.66667C2.48986 4.22493 2.32029 4.29517 2.19526 4.4202C2.07024 4.54522 2 4.71479 2 4.8916C2 5.06841 2.07024 5.23798 2.19526 5.36301C2.32029 5.48803 2.48986 5.55827 2.66667 5.55827H10.6667V6.22493C10.6667 6.40175 10.7369 6.57132 10.8619 6.69634C10.987 6.82136 11.1565 6.8916 11.3333 6.8916C11.5101 6.8916 11.6797 6.82136 11.8047 6.69634C11.9298 6.57132 12 6.40175 12 6.22493V5.55827H13.3333C13.5101 5.55827 13.6797 5.48803 13.8047 5.36301C13.9298 5.23798 14 5.06841 14 4.8916C14 4.71479 13.9298 4.54522 13.8047 4.4202C13.6797 4.29517 13.5101 4.22493 13.3333 4.22493H12V3.55827ZM2.66667 8.22494C2.48986 8.22494 2.32029 8.29517 2.19526 8.4202C2.07024 8.54522 2 8.71479 2 8.8916C2 9.06841 2.07024 9.23798 2.19526 9.36301C2.32029 9.48803 2.48986 9.55827 2.66667 9.55827H4V10.2249C4 10.4017 4.07024 10.5713 4.19526 10.6963C4.32029 10.8214 4.48986 10.8916 4.66667 10.8916C4.84348 10.8916 5.01305 10.8214 5.13807 10.6963C5.2631 10.5713 5.33333 10.4017 5.33333 10.2249V9.55827H13.3333C13.5101 9.55827 13.6797 9.48803 13.8047 9.36301C13.9298 9.23798 14 9.06841 14 8.8916C14 8.71479 13.9298 8.54522 13.8047 8.4202C13.6797 8.29517 13.5101 8.22494 13.3333 8.22494H5.33333V7.55827C5.33333 7.38146 5.2631 7.21189 5.13807 7.08686C5.01305 6.96184 4.84348 6.8916 4.66667 6.8916C4.48986 6.8916 4.32029 6.96184 4.19526 7.08686C4.07024 7.21189 4 7.38146 4 7.55827V8.22494H2.66667ZM2 12.8916C2 12.7148 2.07024 12.5452 2.19526 12.4202C2.32029 12.2952 2.48986 12.2249 2.66667 12.2249H10.6667V11.5583C10.6667 11.3815 10.7369 11.2119 10.8619 11.0869C10.987 10.9618 11.1565 10.8916 11.3333 10.8916C11.5101 10.8916 11.6797 10.9618 11.8047 11.0869C11.9298 11.2119 12 11.3815 12 11.5583V12.2249H13.3333C13.5101 12.2249 13.6797 12.2952 13.8047 12.4202C13.9298 12.5452 14 12.7148 14 12.8916C14 13.0684 13.9298 13.238 13.8047 13.363C13.6797 13.488 13.5101 13.5583 13.3333 13.5583H12V14.2249C12 14.4017 11.9298 14.5713 11.8047 14.6963C11.6797 14.8214 11.5101 14.8916 11.3333 14.8916C11.1565 14.8916 10.987 14.8214 10.8619 14.6963C10.7369 14.5713 10.6667 14.4017 10.6667 14.2249V13.5583H2.66667C2.48986 13.5583 2.32029 13.488 2.19526 13.363C2.07024 13.238 2 13.0684 2 12.8916Z" fill="#54575E"/>
</g>
<defs>
<clipPath id="clip0_493_3434">
<rect width="16" height="16" fill="white" transform="translate(0 0.891602)"/>
</clipPath>
</defs>
</svg>
