<svg width="28" height="29" viewBox="0 0 28 29" fill="none" xmlns="http://www.w3.org/2000/svg">
<g clip-path="url(#clip0_488_2899)">
<path fill-rule="evenodd" clip-rule="evenodd" d="M21 24.2249C21 24.5344 20.8771 24.8311 20.6583 25.0499C20.4395 25.2687 20.1428 25.3916 19.8333 25.3916C19.5239 25.3916 19.2272 25.2687 19.0084 25.0499C18.7896 24.8311 18.6667 24.5344 18.6667 24.2249V23.0583H4.66667C4.35725 23.0583 4.0605 22.9354 3.84171 22.7166C3.62292 22.4978 3.5 22.201 3.5 21.8916C3.5 21.5822 3.62292 21.2854 3.84171 21.0666C4.0605 20.8479 4.35725 20.7249 4.66667 20.7249H18.6667V19.5583C18.6667 19.2488 18.7896 18.9521 19.0084 18.7333C19.2272 18.5145 19.5239 18.3916 19.8333 18.3916C20.1428 18.3916 20.4395 18.5145 20.6583 18.7333C20.8771 18.9521 21 19.2488 21 19.5583V20.7249H23.3333C23.6428 20.7249 23.9395 20.8479 24.1583 21.0666C24.3771 21.2854 24.5 21.5822 24.5 21.8916C24.5 22.201 24.3771 22.4978 24.1583 22.7166C23.9395 22.9354 23.6428 23.0583 23.3333 23.0583H21V24.2249ZM4.66667 16.0583C4.35725 16.0583 4.0605 15.9354 3.84171 15.7166C3.62292 15.4978 3.5 15.201 3.5 14.8916C3.5 14.5822 3.62292 14.2854 3.84171 14.0666C4.0605 13.8479 4.35725 13.7249 4.66667 13.7249H7V12.5583C7 12.2488 7.12292 11.9521 7.34171 11.7333C7.5605 11.5145 7.85725 11.3916 8.16667 11.3916C8.47609 11.3916 8.77283 11.5145 8.99162 11.7333C9.21042 11.9521 9.33333 12.2488 9.33333 12.5583V13.7249H23.3333C23.6428 13.7249 23.9395 13.8479 24.1583 14.0666C24.3771 14.2854 24.5 14.5822 24.5 14.8916C24.5 15.201 24.3771 15.4978 24.1583 15.7166C23.9395 15.9354 23.6428 16.0583 23.3333 16.0583H9.33333V17.2249C9.33333 17.5344 9.21042 17.8311 8.99162 18.0499C8.77283 18.2687 8.47609 18.3916 8.16667 18.3916C7.85725 18.3916 7.5605 18.2687 7.34171 18.0499C7.12292 17.8311 7 17.5344 7 17.2249V16.0583H4.66667ZM3.5 7.8916C3.5 8.20102 3.62292 8.49777 3.84171 8.71656C4.0605 8.93535 4.35725 9.05827 4.66667 9.05827H18.6667V10.2249C18.6667 10.5344 18.7896 10.8311 19.0084 11.0499C19.2272 11.2687 19.5239 11.3916 19.8333 11.3916C20.1428 11.3916 20.4395 11.2687 20.6583 11.0499C20.8771 10.8311 21 10.5344 21 10.2249V9.05827H23.3333C23.6428 9.05827 23.9395 8.93535 24.1583 8.71656C24.3771 8.49777 24.5 8.20102 24.5 7.8916C24.5 7.58218 24.3771 7.28544 24.1583 7.06664C23.9395 6.84785 23.6428 6.72494 23.3333 6.72494H21V5.55827C21 5.24885 20.8771 4.9521 20.6583 4.73331C20.4395 4.51452 20.1428 4.3916 19.8333 4.3916C19.5239 4.3916 19.2272 4.51452 19.0084 4.73331C18.7896 4.9521 18.6667 5.24885 18.6667 5.55827V6.72494H4.66667C4.35725 6.72494 4.0605 6.84785 3.84171 7.06664C3.62292 7.28544 3.5 7.58218 3.5 7.8916Z" fill="#54575E"/>
</g>
<defs>
<clipPath id="clip0_488_2899">
<rect width="28" height="28" fill="white" transform="matrix(1 0 0 -1 0 28.8916)"/>
</clipPath>
</defs>
</svg>
