<svg width="39" height="39" viewBox="0 0 39 39" fill="none" xmlns="http://www.w3.org/2000/svg">
<g clip-path="url(#clip0_488_2395)">
<path d="M30.5716 6.7251C31.4115 6.7251 32.2169 7.05873 32.8108 7.65259C33.4046 8.24646 33.7383 9.05191 33.7383 9.89176V11.4751H24.2383C22.1386 11.4751 20.125 12.3092 18.6404 13.7938C17.1557 15.2785 16.3216 17.2921 16.3216 19.3918C16.3216 21.4914 17.1557 23.505 18.6404 24.9897C20.125 26.4744 22.1386 27.3084 24.2383 27.3084H33.7383V28.8918C33.7383 29.7316 33.4046 30.5371 32.8108 31.1309C32.2169 31.7248 31.4115 32.0584 30.5716 32.0584H8.40495C7.5651 32.0584 6.75964 31.7248 6.16578 31.1309C5.57191 30.5371 5.23828 29.7316 5.23828 28.8918V9.89176C5.23828 9.05191 5.57191 8.24646 6.16578 7.65259C6.75964 7.05873 7.5651 6.7251 8.40495 6.7251H30.5716ZM32.1549 14.6418C32.9948 14.6418 33.8003 14.9754 34.3941 15.5693C34.988 16.1631 35.3216 16.9686 35.3216 17.8084V20.9751C35.3216 21.8149 34.988 22.6204 34.3941 23.2143C33.8003 23.8081 32.9948 24.1418 32.1549 24.1418H24.2383C22.9785 24.1418 21.7703 23.6413 20.8795 22.7505C19.9887 21.8597 19.4883 20.6515 19.4883 19.3918C19.4883 18.132 19.9887 16.9238 20.8795 16.033C21.7703 15.1422 22.9785 14.6418 24.2383 14.6418H32.1549ZM24.2383 17.8084C23.8184 17.8084 23.4156 17.9752 23.1187 18.2722C22.8218 18.5691 22.6549 18.9718 22.6549 19.3918C22.6549 19.8117 22.8218 20.2144 23.1187 20.5113C23.4156 20.8083 23.8184 20.9751 24.2383 20.9751C24.6582 20.9751 25.0609 20.8083 25.3579 20.5113C25.6548 20.2144 25.8216 19.8117 25.8216 19.3918C25.8216 18.9718 25.6548 18.5691 25.3579 18.2722C25.0609 17.9752 24.6582 17.8084 24.2383 17.8084Z" fill="#2C42C2"/>
</g>
<defs>
<clipPath id="clip0_488_2395">
<rect width="38" height="38" fill="white" transform="translate(0.488281 0.391602)"/>
</clipPath>
</defs>
</svg>
