<svg width="21" height="25" viewBox="0 0 21 25" fill="none" xmlns="http://www.w3.org/2000/svg">
<path d="M14.4542 2.56877C14.7289 2.24085 15.1014 2.05664 15.4899 2.05664C15.8783 2.05664 16.2508 2.24085 16.5256 2.56877L18.6908 5.15477C18.9653 5.48292 19.1196 5.92785 19.1196 6.39177C19.1196 6.85568 18.9653 7.30061 18.6908 7.62877L16.3523 10.4218L16.3422 10.4348L7.27617 20.7698C7.11049 20.9588 6.91005 21.0989 6.69091 21.1788L2.06663 22.8588C1.9579 22.8981 1.84226 22.9014 1.73208 22.8683C1.62191 22.8352 1.52135 22.7669 1.44118 22.6708C1.36068 22.575 1.3035 22.4549 1.27578 22.3233C1.24805 22.1917 1.25081 22.0536 1.28377 21.9238L2.68454 16.4238C2.758 16.1359 2.89239 15.8755 3.07471 15.6678L12.1207 5.35477L14.4542 2.56877ZM3.94213 16.7528C3.91624 16.7827 3.89696 16.8198 3.88603 16.8608L2.82771 21.0148L6.32502 19.7438C6.35638 19.7321 6.38505 19.7119 6.40875 19.6848L15.0101 9.87877L12.5485 6.93977L3.94213 16.7528ZM15.9085 8.83177L17.8033 6.56977C17.8228 6.54654 17.8382 6.51896 17.8488 6.48858C17.8593 6.45821 17.8648 6.42565 17.8648 6.39277C17.8648 6.35988 17.8593 6.32732 17.8488 6.29695C17.8382 6.26658 17.8228 6.23899 17.8033 6.21577L15.6381 3.62977C15.6186 3.60649 15.5955 3.58801 15.5701 3.57541C15.5447 3.56281 15.5174 3.55632 15.4899 3.55632C15.4623 3.55632 15.4351 3.56281 15.4096 3.57541C15.3842 3.58801 15.3611 3.60649 15.3417 3.62977L13.4477 5.89177L15.9085 8.83177Z" fill="#54575E"/>
</svg>
