<svg width="39" height="39" viewBox="0 0 39 39" fill="none" xmlns="http://www.w3.org/2000/svg">
<path d="M25.4375 18.7041C25.4375 18.9905 25.3684 19.2727 25.2361 19.5267C25.1038 19.7807 24.9122 19.999 24.6775 20.1632L18.74 24.3195C18.4731 24.5063 18.16 24.6163 17.8349 24.6375C17.5098 24.6588 17.1851 24.5905 16.8961 24.44C16.6072 24.2895 16.365 24.0627 16.196 23.7842C16.027 23.5057 15.9376 23.1861 15.9375 22.8604V14.5479C15.9376 14.2221 16.027 13.9025 16.196 13.624C16.365 13.3455 16.6072 13.1187 16.8961 12.9682C17.1851 12.8177 17.5098 12.7494 17.8349 12.7707C18.16 12.7919 18.4731 12.9019 18.74 13.0887L24.6775 17.245C24.9122 17.4092 25.1038 17.6275 25.2361 17.8815C25.3684 18.1355 25.4375 18.4177 25.4375 18.7041ZM35.5312 10.3916V27.0166C35.5312 27.5624 35.4237 28.1029 35.2149 28.6071C35.006 29.1114 34.6999 29.5696 34.3139 29.9555C33.928 30.3415 33.4698 30.6476 32.9655 30.8565C32.4613 31.0653 31.9208 31.1729 31.375 31.1729H7.625C6.52269 31.1729 5.46554 30.735 4.68609 29.9555C3.90664 29.1761 3.46875 28.1189 3.46875 27.0166V10.3916C3.46875 9.2893 3.90664 8.23214 4.68609 7.45269C5.46554 6.67324 6.52269 6.23535 7.625 6.23535H31.375C31.9208 6.23535 32.4613 6.34286 32.9655 6.55173C33.4698 6.7606 33.928 7.06675 34.3139 7.45269C34.6999 7.83863 35.006 8.29681 35.2149 8.80107C35.4237 9.30533 35.5312 9.84579 35.5312 10.3916ZM31.9688 10.3916C31.9688 10.2341 31.9062 10.0831 31.7948 9.97176C31.6835 9.86041 31.5325 9.79785 31.375 9.79785H7.625C7.46753 9.79785 7.31651 9.86041 7.20516 9.97176C7.09381 10.0831 7.03125 10.2341 7.03125 10.3916V27.0166C7.03125 27.1741 7.09381 27.3251 7.20516 27.4364C7.31651 27.5478 7.46753 27.6104 7.625 27.6104H31.375C31.5325 27.6104 31.6835 27.5478 31.7948 27.4364C31.9062 27.3251 31.9688 27.1741 31.9688 27.0166V10.3916ZM24.25 32.9541H14.75C14.2776 32.9541 13.8245 33.1418 13.4905 33.4758C13.1564 33.8099 12.9688 34.2629 12.9688 34.7354C12.9688 35.2078 13.1564 35.6608 13.4905 35.9949C13.8245 36.3289 14.2776 36.5166 14.75 36.5166H24.25C24.7224 36.5166 25.1755 36.3289 25.5095 35.9949C25.8436 35.6608 26.0312 35.2078 26.0312 34.7354C26.0312 34.2629 25.8436 33.8099 25.5095 33.4758C25.1755 33.1418 24.7224 32.9541 24.25 32.9541Z" fill="#2C42C2"/>
</svg>
