<svg width="15" height="14" viewBox="0 0 15 14" fill="none" xmlns="http://www.w3.org/2000/svg">
<path d="M13.3725 13.7129L8.47254 9.16289C8.08365 9.45178 7.63643 9.68048 7.13087 9.849C6.62531 10.0175 6.08735 10.1018 5.51698 10.1018C4.10402 10.1018 2.90831 9.64726 1.92987 8.73822C0.951426 7.82919 0.461944 6.71889 0.461426 5.40733C0.461426 4.0953 0.950907 2.985 1.92987 2.07645C2.90883 1.16789 4.10454 0.713372 5.51698 0.712891C6.92994 0.712891 8.12565 1.16741 9.10409 2.07645C10.0825 2.98548 10.572 4.09578 10.5725 5.40733C10.5725 5.93696 10.4818 6.4365 10.3003 6.90595C10.1188 7.37539 9.87254 7.79067 9.56143 8.15178L14.4614 12.7018L13.3725 13.7129ZM5.51698 8.65733C6.4892 8.65733 7.31572 8.34124 7.99654 7.70906C8.67735 7.07687 9.0175 6.30963 9.01698 5.40733C9.01698 4.50456 8.67657 3.73708 7.99576 3.10489C7.31494 2.47271 6.48869 2.15685 5.51698 2.15734C4.54476 2.15734 3.71824 2.47343 3.03743 3.10561C2.35661 3.7378 2.01646 4.50504 2.01698 5.40733C2.01698 6.31011 2.35739 7.07759 3.0382 7.70978C3.71902 8.34196 4.54528 8.65782 5.51698 8.65733Z" fill="#231F20"/>
</svg>
