<svg width="17" height="29" viewBox="0 0 17 29" fill="none" xmlns="http://www.w3.org/2000/svg">
<path d="M10.1527 28.0292C8.08563 28.6203 5.9411 27.9605 4.1909 26.195C2.4407 24.4296 1.22822 21.703 0.820172 18.6153C0.411607 15.5236 0.834181 12.3285 1.97772 9.69249L3.53315 11.2615C3.06367 12.2412 2.73439 13.3553 2.56567 14.535C2.39694 15.7147 2.39235 16.9348 2.55218 18.1201C3.6189 26.1921 10.6819 28.3612 13.7471 21.5645C16.8123 14.7678 12.8128 5.78907 7.41757 7.33165L7.93042 11.2124L3.78261 7.02847L3.76552 6.89911L6.56284 0.863656L7.07568 4.74445C9.14279 4.15343 11.2873 4.81322 13.0375 6.57868C14.7877 8.34413 16.0002 11.0706 16.4082 14.1584C16.8163 17.2461 16.3865 20.4422 15.2133 23.0435C14.0402 25.6448 12.2198 27.4382 10.1527 28.0292Z" fill="#2C42C2"/>
</svg>
