<svg width="21" height="30" viewBox="0 0 21 30" fill="none" xmlns="http://www.w3.org/2000/svg">
<path d="M20.547 22.1596L18.7732 20.2783V12.9867C18.7732 8.50957 16.5182 4.76165 12.5857 3.76999V2.77832C12.5857 1.5679 11.6645 0.59082 10.5232 0.59082C9.38195 0.59082 8.4607 1.5679 8.4607 2.77832V3.76999C4.51445 4.76165 2.2732 8.49499 2.2732 12.9867V20.2783L0.499453 22.1596C-0.366797 23.0783 0.238203 24.6533 1.46195 24.6533H19.5707C20.8082 24.6533 21.4132 23.0783 20.547 22.1596ZM16.0232 21.7367H5.0232V12.9867C5.0232 9.36999 7.09945 6.42415 10.5232 6.42415C13.947 6.42415 16.0232 9.36999 16.0232 12.9867V21.7367ZM10.5232 29.0283C12.0357 29.0283 13.2732 27.7158 13.2732 26.1117H7.7732C7.7732 27.7158 8.99695 29.0283 10.5232 29.0283Z" fill="#2C42C2"/>
</svg>
