<svg width="17" height="29" viewBox="0 0 17 29" fill="none" xmlns="http://www.w3.org/2000/svg">
<path d="M10.1532 28.0292C8.08612 28.6203 5.94158 27.9605 4.19138 26.195C2.44119 24.4296 1.2287 21.703 0.820656 18.6153C0.412091 15.5236 0.834665 12.3285 1.9782 9.69248L3.53363 11.2615C3.06415 12.2412 2.73488 13.3553 2.56615 14.535C2.39743 15.7147 2.39284 16.9348 2.55267 18.1201C3.61938 26.1921 10.6824 28.3612 13.7476 21.5645C16.8128 14.7678 12.8133 5.78906 7.41806 7.33165L7.9309 11.2124L3.7831 7.02847L3.766 6.89911L6.56332 0.863651L7.07616 4.74445C9.14327 4.15343 11.2878 4.81322 13.038 6.57867C14.7882 8.34413 16.0007 11.0706 16.4087 14.1584C16.8168 17.2461 16.387 20.4422 15.2138 23.0435C14.0407 25.6448 12.2203 27.4382 10.1532 28.0292Z" fill="#2C42C2"/>
</svg>
