<svg width="15" height="7" viewBox="0 0 15 7" fill="none" xmlns="http://www.w3.org/2000/svg">
<path d="M14.6698 1.12104C14.4584 0.97413 14.1716 0.8916 13.8725 0.8916C13.5735 0.8916 13.2867 0.97413 13.0753 1.12104L7.49319 5.00006L1.91111 1.12104C1.69843 0.978293 1.41357 0.899307 1.11789 0.901092C0.822214 0.902877 0.539374 0.985292 0.330291 1.13059C0.121207 1.27588 0.00261015 1.47243 4.09484e-05 1.67789C-0.00252825 1.88336 0.111137 2.08131 0.316555 2.22911L6.69591 6.66216C6.90739 6.80907 7.19417 6.8916 7.49319 6.8916C7.79221 6.8916 8.079 6.80907 8.29047 6.66216L14.6698 2.22911C14.8812 2.08215 15 1.88287 15 1.67507C15 1.46728 14.8812 1.26799 14.6698 1.12104Z" fill="#1D1E27"/>
</svg>
