<svg width="15" height="7" viewBox="0 0 15 7" fill="none" xmlns="http://www.w3.org/2000/svg">
<path d="M14.6698 0.621039C14.4584 0.47413 14.1716 0.3916 13.8725 0.3916C13.5735 0.3916 13.2867 0.47413 13.0753 0.621039L7.49319 4.50006L1.91111 0.621039C1.69843 0.478293 1.41357 0.399307 1.11789 0.401092C0.822214 0.402877 0.539374 0.485292 0.330291 0.630585C0.121207 0.775879 0.00261015 0.972426 4.09484e-05 1.17789C-0.00252825 1.38336 0.111137 1.58131 0.316555 1.72911L6.69591 6.16216C6.90739 6.30907 7.19417 6.3916 7.49319 6.3916C7.79221 6.3916 8.079 6.30907 8.29047 6.16216L14.6698 1.72911C14.8812 1.58215 15 1.38287 15 1.17507C15 0.96728 14.8812 0.767994 14.6698 0.621039Z" fill="#1D1E27"/>
</svg>
