<svg width="15" height="14" viewBox="0 0 15 14" fill="none" xmlns="http://www.w3.org/2000/svg">
<path d="M13.372 13.7129L8.47205 9.16289C8.08316 9.45178 7.63594 9.68048 7.13038 9.849C6.62483 10.0175 6.08686 10.1018 5.51649 10.1018C4.10353 10.1018 2.90783 9.64726 1.92938 8.73822C0.950938 7.82919 0.461456 6.71889 0.460938 5.40733C0.460938 4.0953 0.950419 2.985 1.92938 2.07645C2.90834 1.16789 4.10405 0.713372 5.51649 0.712891C6.92946 0.712891 8.12516 1.16741 9.1036 2.07645C10.082 2.98548 10.5715 4.09578 10.572 5.40733C10.572 5.93696 10.4813 6.4365 10.2998 6.90595C10.1183 7.37539 9.87205 7.79067 9.56094 8.15178L14.4609 12.7018L13.372 13.7129ZM5.51649 8.65733C6.48872 8.65733 7.31523 8.34124 7.99605 7.70906C8.67686 7.07687 9.01701 6.30963 9.01649 5.40733C9.01649 4.50456 8.67609 3.73708 7.99527 3.10489C7.31446 2.47271 6.4882 2.15685 5.51649 2.15734C4.54427 2.15734 3.71775 2.47343 3.03694 3.10561C2.35612 3.7378 2.01597 4.50504 2.01649 5.40733C2.01649 6.31011 2.3569 7.07759 3.03772 7.70978C3.71853 8.34196 4.54479 8.65782 5.51649 8.65733Z" fill="#231F20"/>
</svg>
