<svg width="29" height="29" viewBox="0 0 29 29" fill="none" xmlns="http://www.w3.org/2000/svg">
<path d="M25.9609 28.5078L16.1172 18.6641C15.3359 19.2891 14.4375 19.7839 13.4219 20.1484C12.4062 20.513 11.3255 20.6953 10.1797 20.6953C7.34115 20.6953 4.93906 19.712 2.97344 17.7453C1.00781 15.7786 0.0244792 13.3766 0.0234375 10.5391C0.0234375 7.70052 1.00677 5.29844 2.97344 3.33281C4.9401 1.36719 7.34219 0.383854 10.1797 0.382812C13.0182 0.382812 15.4203 1.36615 17.3859 3.33281C19.3516 5.29948 20.3349 7.70156 20.3359 10.5391C20.3359 11.6849 20.1536 12.7656 19.7891 13.7812C19.4245 14.7969 18.9297 15.6953 18.3047 16.4766L28.1484 26.3203L25.9609 28.5078ZM10.1797 17.5703C12.1328 17.5703 13.7932 16.8865 15.1609 15.5188C16.5286 14.151 17.212 12.4911 17.2109 10.5391C17.2109 8.58594 16.5271 6.92552 15.1594 5.55781C13.7917 4.1901 12.1318 3.50677 10.1797 3.50781C8.22656 3.50781 6.56615 4.19167 5.19844 5.55938C3.83073 6.92708 3.1474 8.58698 3.14844 10.5391C3.14844 12.4922 3.83229 14.1526 5.2 15.5203C6.56771 16.888 8.2276 17.5714 10.1797 17.5703Z" fill="#2C42C2"/>
</svg>
